<?xml version="1.0" encoding="UTF-8" standalone="no"?>
<!DOCTYPE svg PUBLIC "-//W3C//DTD SVG 1.1//EN" "http://www.w3.org/Graphics/SVG/1.1/DTD/svg11.dtd">
<svg width="100%" height="100%" viewBox="0 0 48 48" version="1.1" xmlns="http://www.w3.org/2000/svg" xmlns:xlink="http://www.w3.org/1999/xlink" xml:space="preserve" xmlns:serif="http://www.serif.com/" style="fill-rule:evenodd;clip-rule:evenodd;stroke-linejoin:round;stroke-miterlimit:2;">
    <circle cx="24" cy="24" r="24" style="fill:white;"/>
    <g>
        <g transform="matrix(0.533423,0,0,0.466867,6.93047,8.79794)">
            <path d="M54.94,24.284C54.94,21.327 52.839,18.926 50.251,18.926C50.251,18.926 13.749,18.926 13.749,18.926C11.161,18.926 9.06,21.327 9.06,24.284C9.06,24.284 9.06,49.716 9.06,49.716C9.06,52.673 11.161,55.074 13.749,55.074L50.251,55.074C52.839,55.074 54.94,52.673 54.94,49.716L54.94,24.284ZM53.06,24.284L53.06,49.716C53.06,51.488 51.801,52.926 50.251,52.926C50.251,52.926 13.749,52.926 13.749,52.926C12.199,52.926 10.94,51.488 10.94,49.716L10.94,24.284C10.94,22.512 12.199,21.074 13.749,21.074L50.251,21.074C51.801,21.074 53.06,22.512 53.06,24.284Z" style="fill:rgb(23,28,32);"/>
        </g>
        <g transform="matrix(0.533423,0,0,0.703233,6.93047,7.37974)">
            <path d="M21.17,20C21.17,15.457 23.183,11.587 26.046,9.225C27.814,7.765 29.895,6.888 32,6.888C34.105,6.888 36.186,7.765 37.954,9.225C40.817,11.587 42.83,15.457 42.83,20L45.17,20C45.17,14.943 42.863,10.653 39.678,8.023C37.414,6.155 34.695,5.112 32,5.112C29.305,5.112 26.586,6.155 24.322,8.023C21.137,10.653 18.83,14.943 18.83,20L21.17,20Z" style="fill:rgb(23,28,32);"/>
        </g>
        <g transform="matrix(0.533423,0,0,0.466867,4.79678,6.50466)">
            <circle cx="24" cy="32" r="2" style="fill:rgb(23,28,32);"/>
        </g>
        <g transform="matrix(0.533423,0,0,0.466867,4.79678,6.50466)">
            <path d="M24,28.929C22.346,28.929 21.063,30.346 21.063,32C21.063,33.654 22.346,35.071 24,35.071C25.654,35.071 26.937,33.654 26.937,32C26.937,30.346 25.654,28.929 24,28.929ZM24,31.071C24.556,31.071 25.063,31.444 25.063,32C25.063,32.556 24.556,32.929 24,32.929C23.444,32.929 22.937,32.556 22.937,32C22.937,31.444 23.444,31.071 24,31.071Z" style="fill:rgb(23,28,32);"/>
        </g>
        <g transform="matrix(0.533423,0,0,0.466867,9.06416,6.50466)">
            <circle cx="40" cy="32" r="2" style="fill:rgb(23,28,32);"/>
        </g>
        <g transform="matrix(0.533423,0,0,0.466867,9.06416,6.50466)">
            <path d="M40,28.929C38.346,28.929 37.063,30.346 37.063,32C37.063,33.654 38.346,35.071 40,35.071C41.654,35.071 42.937,33.654 42.937,32C42.937,30.346 41.654,28.929 40,28.929ZM40,31.071C40.556,31.071 41.063,31.444 41.063,32C41.063,32.556 40.556,32.929 40,32.929C39.444,32.929 38.937,32.556 38.937,32C38.937,31.444 39.444,31.071 40,31.071Z" style="fill:rgb(23,28,32);"/>
        </g>
    </g>
</svg>
