<?xml version="1.0" encoding="UTF-8" standalone="no"?>
<!DOCTYPE svg PUBLIC "-//W3C//DTD SVG 1.1//EN" "http://www.w3.org/Graphics/SVG/1.1/DTD/svg11.dtd">
<svg width="100%" height="100%" viewBox="0 0 1920 1920" version="1.1" xmlns="http://www.w3.org/2000/svg" xmlns:xlink="http://www.w3.org/1999/xlink" xml:space="preserve" xmlns:serif="http://www.serif.com/" style="fill-rule:evenodd;clip-rule:evenodd;stroke-linecap:round;stroke-linejoin:round;">
    <g id="Layer1">
        <path d="M1033.01,727.273L1033.01,664.615L1207.55,664.615" style="fill:none;"/>
    </g>
    <g id="Layer2">
        <g>
            <g transform="matrix(0.239349,0,0,0.239349,674.696,556.698)">
                <path d="M773.095,2656.19C756.777,2653.32 747.711,2648.54 740.778,2641.55L547.235,2448C537.865,2438.62 532.592,2425.89 532.582,2412.63L532.582,848.859C532.582,848.854 532.582,848.849 532.582,848.843C532.582,774.761 593.543,713.801 667.625,713.801C667.63,713.801 667.635,713.801 667.64,713.801L975.222,713.801L975.222,750.233L880.316,750.233L880.316,959.4L837.76,959.4C833.323,943.529 818.753,932.473 802.273,932.473C795.247,932.473 788.364,934.483 782.442,938.265L752.979,911.903C766.462,893.653 773.74,871.55 773.74,848.859C773.74,790.654 725.845,742.759 667.64,742.759C609.436,742.759 561.54,790.654 561.54,848.859C561.54,848.859 561.54,848.859 561.54,848.859C561.54,907.064 609.436,954.959 667.64,954.959C694.372,954.959 720.14,944.857 739.749,926.689L769.213,953.051C766.722,958.113 765.426,963.679 765.426,969.32C765.426,989.534 782.059,1006.17 802.273,1006.17C818.753,1006.17 833.323,995.112 837.76,979.24L880.316,979.24L880.316,2270.3L837.76,2270.3C833.323,2254.43 818.753,2243.37 802.273,2243.37C782.06,2243.37 765.426,2260.01 765.426,2280.22C765.426,2300.43 782.06,2317.07 802.273,2317.07C818.753,2317.07 833.323,2306.01 837.76,2290.14L880.316,2290.14L880.316,2324.62L958.234,2324.4L958.234,1486.18L1064.06,1486.18L1064.06,1580.89L1099.34,1580.89L1099.34,1486.18L1205.16,1486.18L1205.16,1580.89L1262.65,1580.89L1293.06,1478.78L1297.93,1470.42C1215.53,1422.44 1164.68,1333.99 1164.68,1238.63C1164.68,1091.48 1285.77,970.398 1432.92,970.398C1463.87,970.398 1494.59,975.755 1523.71,986.231L1506.45,1023.25C1482.78,1015.17 1457.93,1011.05 1432.92,1011.05C1308.07,1011.05 1205.34,1113.78 1205.34,1238.63C1205.34,1318.22 1247.08,1392.23 1315.19,1433.4L1332.5,1396.3C1278.67,1362.02 1245.99,1302.45 1245.99,1238.63C1245.99,1136.09 1330.37,1051.7 1432.92,1051.7C1451.99,1051.7 1470.96,1054.62 1489.15,1060.36L1471.78,1097.61C1459.12,1094.12 1446.05,1092.35 1432.92,1092.35C1352.67,1092.35 1286.64,1158.39 1286.64,1238.63C1286.64,1286.68 1310.31,1331.77 1349.87,1359.05L1367.39,1321.48C1342.09,1301.46 1327.3,1270.9 1327.3,1238.63C1327.3,1180.69 1374.98,1133.01 1432.92,1133.01C1440.09,1133.01 1447.24,1133.74 1454.26,1135.19L1436.29,1173.81C1435.17,1173.75 1434.04,1173.73 1432.92,1173.73C1397.31,1173.73 1368.01,1203.03 1368.01,1238.63C1368.01,1255.05 1374.24,1270.87 1385.43,1282.88L1429.55,1303.45C1430.67,1303.51 1431.8,1303.54 1432.92,1303.54C1468.53,1303.54 1497.83,1274.24 1497.83,1238.63C1497.83,1222.22 1491.6,1206.4 1480.41,1194.39L1498.44,1155.79C1523.75,1175.81 1538.54,1206.36 1538.54,1238.63C1538.54,1296.58 1490.86,1344.26 1432.92,1344.26C1425.75,1344.26 1418.6,1343.53 1411.58,1342.08L1394.06,1379.66C1406.72,1383.14 1419.79,1384.91 1432.92,1384.91C1513.17,1384.91 1579.2,1318.88 1579.2,1238.63C1579.2,1190.58 1555.52,1145.5 1515.97,1118.22L1533.34,1080.97C1587.17,1115.25 1619.85,1174.82 1619.85,1238.63C1619.85,1341.18 1535.47,1425.57 1432.92,1425.57C1413.85,1425.57 1394.88,1422.65 1376.69,1416.91L1359.39,1454.01C1383.06,1462.09 1407.91,1466.22 1432.92,1466.22C1557.77,1466.22 1660.5,1363.48 1660.5,1238.63C1660.5,1159.05 1618.76,1085.03 1550.65,1043.87L1567.91,1006.84C1650.31,1054.83 1701.15,1143.28 1701.15,1238.63C1701.15,1385.78 1580.07,1506.87 1432.92,1506.87C1401.97,1506.87 1371.25,1501.51 1342.13,1491.04L1339.13,1498.77L1304.11,1611.05L1169.89,1611.05L1169.89,1527.24L1134.61,1527.24L1134.61,1611.05L1028.79,1611.05L1028.79,1527.24L993.509,1527.24L993.509,2316.43L1021.94,2316.43L1021.94,2372.53L880.823,2372.53L880.823,2634.14L1701.58,2634.14L1701.58,2372.53L1702.09,2372.53L1702.09,2290.14L1744.65,2290.14C1749.08,2306.01 1763.65,2317.07 1780.13,2317.07C1800.35,2317.07 1816.98,2300.43 1816.98,2280.22C1816.98,2260.01 1800.35,2243.37 1780.13,2243.37C1763.65,2243.37 1749.08,2254.43 1744.65,2270.3L1702.09,2270.3L1702.09,979.24L1744.65,979.24C1749.08,995.111 1763.65,1006.17 1780.13,1006.17C1800.35,1006.17 1816.98,989.534 1816.98,969.32C1816.98,949.107 1800.35,932.473 1780.13,932.473C1763.65,932.473 1749.08,943.529 1744.65,959.4L1702.09,959.4L1702.09,750.233L1607.18,750.233L1607.18,713.801L1721.22,713.801C1734.48,713.811 1747.21,719.083 1756.6,728.454C1783.32,755.176 1810.04,781.899 1836.77,808.622C1846.14,818.005 1851.41,830.735 1851.42,843.996L1851.42,2549.49C1851.42,2549.49 1851.42,2549.49 1851.42,2549.5C1851.42,2608.03 1803.25,2656.2 1744.72,2656.2C1744.71,2656.2 1744.71,2656.2 1744.7,2656.2L773.178,2656.2L773.095,2656.19Z" style="fill:none;fill-rule:nonzero;stroke:white;stroke-width:9.56px;"/>
            </g>
            <g transform="matrix(0.239349,0,0,0.239349,674.696,556.698)">
                <path d="M766.724,1036.91L766.724,1000.05L783.147,1009.95L783.155,1472.35L754.813,1551.99L754.834,2644.44" style="fill:none;fill-rule:nonzero;stroke:white;stroke-width:9.56px;"/>
            </g>
            <g transform="matrix(0.239349,0,0,0.239349,674.696,556.698)">
                <path d="M578.352,1069.48L545.78,1053.19L545.78,1036.91L766.724,1036.91" style="fill:none;fill-rule:nonzero;stroke:white;stroke-width:9.56px;"/>
            </g>
            <g transform="matrix(0.239349,0,0,0.239349,674.696,556.698)">
                <path d="M766.724,1085.77L766.724,1036.91L545.78,1036.91L545.78,1053.19L578.352,1069.48" style="fill:none;fill-rule:nonzero;stroke:white;stroke-width:9.56px;"/>
            </g>
            <g transform="matrix(0.239349,0,0,0.239349,674.696,556.698)">
                <path d="M766.724,1207.91L766.724,1085.77" style="fill:none;fill-rule:nonzero;stroke:white;stroke-width:9.56px;"/>
            </g>
            <g transform="matrix(0.239349,0,0,0.239349,674.696,556.698)">
                <path d="M766.724,1245.15L766.724,1216.06L545.78,1216.06L545.78,1118.34L638.549,1118.34L654.835,1211.83L654.835,1118.34L766.724,1118.34L766.724,1207.91" style="fill:none;fill-rule:nonzero;stroke:white;stroke-width:9.56px;"/>
            </g>
            <g transform="matrix(0.239349,0,0,0.239349,674.696,556.698)">
                <path d="M766.724,1248.63L766.724,1245.15" style="fill:none;fill-rule:nonzero;stroke:white;stroke-width:9.56px;"/>
            </g>
            <g transform="matrix(0.239349,0,0,0.239349,674.696,556.698)">
                <path d="M744.816,1378.92L766.724,1378.92L766.724,1346.34L545.78,1346.34L654.835,1297.49L545.78,1248.63L766.724,1248.63" style="fill:none;fill-rule:nonzero;stroke:white;stroke-width:9.56px;"/>
            </g>
            <g transform="matrix(0.239349,0,0,0.239349,674.696,556.698)">
                <path d="M554.851,1378.92L554.851,1476.63L654.835,1476.63L654.835,1378.92L744.816,1378.92" style="fill:none;fill-rule:nonzero;stroke:white;stroke-width:9.56px;"/>
            </g>
            <g transform="matrix(0.239349,0,0,0.239349,674.696,556.698)">
                <path d="M700.847,1620.76L738.38,1620.76L738.38,1550.93L766.724,1472.35L766.724,1378.92L654.835,1378.92L654.835,1476.63L554.851,1476.63L554.851,1378.92" style="fill:none;fill-rule:nonzero;stroke:white;stroke-width:9.56px;"/>
            </g>
            <g transform="matrix(0.239349,0,0,0.239349,674.696,556.698)">
                <path d="M620.896,1562.01L620.896,1620.76L700.847,1620.76" style="fill:none;fill-rule:nonzero;stroke:white;stroke-width:9.56px;"/>
            </g>
            <g transform="matrix(0.239349,0,0,0.239349,674.696,556.698)">
                <path d="M738.38,1650.06L738.38,1620.76L620.896,1620.76L620.896,1562.01" style="fill:none;fill-rule:nonzero;stroke:white;stroke-width:9.56px;"/>
            </g>
            <g transform="matrix(0.239349,0,0,0.239349,674.696,556.698)">
                <path d="M738.38,1654.51L738.38,1650.06" style="fill:none;fill-rule:nonzero;stroke:white;stroke-width:9.56px;"/>
            </g>
            <g transform="matrix(0.239349,0,0,0.239349,674.696,556.698)">
                <path d="M711.721,1683.88L738.38,1683.88L738.38,1656.66" style="fill:none;fill-rule:nonzero;stroke:white;stroke-width:9.56px;"/>
            </g>
            <g transform="matrix(0.239349,0,0,0.239349,674.696,556.698)">
                <path d="M620.896,1654.51L620.896,1683.88L711.721,1683.88" style="fill:none;fill-rule:nonzero;stroke:white;stroke-width:9.56px;"/>
            </g>
            <g transform="matrix(0.239349,0,0,0.239349,674.696,556.698)">
                <path d="M620.896,1693.71L620.896,1654.51" style="fill:none;fill-rule:nonzero;stroke:white;stroke-width:9.56px;"/>
            </g>
            <g transform="matrix(0.239349,0,0,0.239349,674.696,556.698)">
                <path d="M620.896,1713.25L620.896,1693.71" style="fill:none;fill-rule:nonzero;stroke:white;stroke-width:9.56px;"/>
            </g>
            <g transform="matrix(0.239349,0,0,0.239349,674.696,556.698)">
                <path d="M738.38,1713.25L738.38,1683.88L620.896,1683.88L620.896,1713.25" style="fill:none;fill-rule:nonzero;stroke:white;stroke-width:9.56px;"/>
            </g>
            <g transform="matrix(0.239349,0,0,0.239349,674.696,556.698)">
                <path d="M679.638,1781.27L679.638,1747L738.38,1747L738.38,1713.25" style="fill:none;fill-rule:nonzero;stroke:white;stroke-width:9.56px;"/>
            </g>
            <g transform="matrix(0.239349,0,0,0.239349,674.696,556.698)">
                <path d="M717.123,1805.74L738.38,1805.74L738.38,1747L679.638,1747L679.638,1781.27" style="fill:none;fill-rule:nonzero;stroke:white;stroke-width:9.56px;"/>
            </g>
            <g transform="matrix(0.239349,0,0,0.239349,674.696,556.698)">
                <path d="M620.896,1747L620.896,1805.74L717.123,1805.74" style="fill:none;fill-rule:nonzero;stroke:white;stroke-width:9.56px;"/>
            </g>
            <g transform="matrix(0.239349,0,0,0.239349,674.696,556.698)">
                <path d="M738.38,1819.92L738.38,1805.74L620.896,1805.74L620.896,1747" style="fill:none;fill-rule:nonzero;stroke:white;stroke-width:9.56px;"/>
            </g>
            <g transform="matrix(0.239349,0,0,0.239349,674.696,556.698)">
                <path d="M728.59,1898.24L738.38,1898.24L738.38,1819.92" style="fill:none;fill-rule:nonzero;stroke:white;stroke-width:9.56px;"/>
            </g>
            <g transform="matrix(0.239349,0,0,0.239349,674.696,556.698)">
                <path d="M688.779,1990.73L738.38,1990.73L738.38,1839.5L620.896,1839.5L620.896,1898.24L728.59,1898.24" style="fill:none;fill-rule:nonzero;stroke:white;stroke-width:9.56px;"/>
            </g>
            <g transform="matrix(0.239349,0,0,0.239349,674.696,556.698)">
                <path d="M620.896,1990.73L688.779,1990.73" style="fill:none;fill-rule:nonzero;stroke:white;stroke-width:9.56px;"/>
            </g>
            <g transform="matrix(0.239349,0,0,0.239349,674.696,556.698)">
                <path d="M738.38,2017.02L738.38,1990.73L620.896,1990.73" style="fill:none;fill-rule:nonzero;stroke:white;stroke-width:9.56px;"/>
            </g>
            <g transform="matrix(0.239349,0,0,0.239349,674.696,556.698)">
                <path d="M738.38,2063.65L738.38,2017.02" style="fill:none;fill-rule:nonzero;stroke:white;stroke-width:9.56px;"/>
            </g>
            <g transform="matrix(0.239349,0,0,0.239349,674.696,556.698)">
                <path d="M649.985,2063.65L738.38,2063.65" style="fill:none;fill-rule:nonzero;stroke:white;stroke-width:9.56px;"/>
            </g>
            <g transform="matrix(0.239349,0,0,0.239349,674.696,556.698)">
                <path d="M620.896,2063.65L647.959,2063.65" style="fill:none;fill-rule:nonzero;stroke:white;stroke-width:9.56px;"/>
            </g>
            <g transform="matrix(0.239349,0,0,0.239349,674.696,556.698)">
                <path d="M679.638,2122.32L679.638,2063.65L620.896,2063.65" style="fill:none;fill-rule:nonzero;stroke:white;stroke-width:9.56px;"/>
            </g>
            <g transform="matrix(0.239349,0,0,0.239349,674.696,556.698)">
                <path d="M620.896,2122.39L679.638,2122.39L679.638,2112.6" style="fill:none;fill-rule:nonzero;stroke:white;stroke-width:9.56px;"/>
            </g>
            <g transform="matrix(0.239349,0,0,0.239349,674.696,556.698)">
                <path d="M695.865,2214.88L738.38,2214.88L738.38,2122.39L620.896,2122.39" style="fill:none;fill-rule:nonzero;stroke:white;stroke-width:9.56px;"/>
            </g>
            <g transform="matrix(0.239349,0,0,0.239349,674.696,556.698)">
                <path d="M620.896,2156.14L620.896,2214.88L695.865,2214.88" style="fill:none;fill-rule:nonzero;stroke:white;stroke-width:9.56px;"/>
            </g>
            <g transform="matrix(0.239349,0,0,0.239349,674.696,556.698)">
                <path d="M738.38,2234.09L738.38,2214.88L620.896,2214.88L620.896,2156.14" style="fill:none;fill-rule:nonzero;stroke:white;stroke-width:9.56px;"/>
            </g>
            <g transform="matrix(0.239349,0,0,0.239349,674.696,556.698)">
                <path d="M738.38,2248.64L738.38,2234.09" style="fill:none;fill-rule:nonzero;stroke:white;stroke-width:9.56px;"/>
            </g>
            <g transform="matrix(0.239349,0,0,0.239349,674.696,556.698)">
                <path d="M738.38,2350.77L738.38,2307.38L620.896,2307.38L620.896,2248.64L679.638,2248.64L679.638,2288.8L722.502,2248.64L738.38,2248.64" style="fill:none;fill-rule:nonzero;stroke:white;stroke-width:9.56px;"/>
            </g>
            <g transform="matrix(0.239349,0,0,0.239349,674.696,556.698)">
                <path d="M728.59,2399.87L738.38,2399.87L738.38,2350.77" style="fill:none;fill-rule:nonzero;stroke:white;stroke-width:9.56px;"/>
            </g>
            <g transform="matrix(0.239349,0,0,0.239349,674.696,556.698)">
                <path d="M738.38,2444.29L738.38,2341.13L620.896,2341.13L620.896,2399.87L728.59,2399.87" style="fill:none;fill-rule:nonzero;stroke:white;stroke-width:9.56px;"/>
            </g>
            <g transform="matrix(0.239349,0,0,0.239349,674.696,556.698)">
                <path d="M679.638,2482.58L679.638,2492.37L738.38,2492.37L738.38,2444.29" style="fill:none;fill-rule:nonzero;stroke:white;stroke-width:9.56px;"/>
            </g>
            <g transform="matrix(0.239349,0,0,0.239349,674.696,556.698)">
                <path d="M740.14,2645.42L740.02,2533.46L739.901,2492.37L620.896,2492.37L620.896,2433.63L679.638,2433.63L679.638,2482.58" style="fill:none;fill-rule:nonzero;stroke:white;stroke-width:9.56px;"/>
            </g>
            <g transform="matrix(1,0,0,0.621053,0,275.623)">
                <path d="M912.171,727.807L912.171,740.713L981.157,740.713L981.157,727.338" style="fill:none;stroke:white;stroke-width:2.75px;stroke-miterlimit:1.5;"/>
            </g>
            <g transform="matrix(1,0,0,0.621053,74.6174,275.623)">
                <path d="M912.171,727.807L912.171,740.713L981.157,740.713L981.157,727.338" style="fill:none;stroke:white;stroke-width:2.75px;stroke-miterlimit:1.5;"/>
            </g>
        </g>
        <g transform="matrix(0.567614,0,0,0.567614,1198.34,813.197)">
            <g transform="matrix(0.239349,0,0,0.239349,674.696,556.698)">
                <path d="M773.095,2656.19C756.777,2653.32 747.711,2648.54 740.778,2641.55L547.235,2448C537.865,2438.62 532.592,2425.89 532.582,2412.63L532.582,848.859C532.582,848.854 532.582,848.849 532.582,848.843C532.582,774.761 593.543,713.801 667.625,713.801C667.63,713.801 667.635,713.801 667.64,713.801L975.222,713.801L975.222,750.233L880.316,750.233L880.316,959.4L837.76,959.4C833.323,943.529 818.753,932.473 802.273,932.473C795.247,932.473 788.364,934.483 782.442,938.265L752.979,911.903C766.462,893.653 773.74,871.55 773.74,848.859C773.74,790.654 725.845,742.759 667.64,742.759C609.436,742.759 561.54,790.654 561.54,848.859C561.54,848.859 561.54,848.859 561.54,848.859C561.54,907.064 609.436,954.959 667.64,954.959C694.372,954.959 720.14,944.857 739.749,926.689L769.213,953.051C766.722,958.113 765.426,963.679 765.426,969.32C765.426,989.534 782.059,1006.17 802.273,1006.17C818.753,1006.17 833.323,995.112 837.76,979.24L880.316,979.24L880.316,2270.3L837.76,2270.3C833.323,2254.43 818.753,2243.37 802.273,2243.37C782.06,2243.37 765.426,2260.01 765.426,2280.22C765.426,2300.43 782.06,2317.07 802.273,2317.07C818.753,2317.07 833.323,2306.01 837.76,2290.14L880.316,2290.14L880.316,2324.62L958.234,2324.4L958.234,1486.18L1064.06,1486.18L1064.06,1580.89L1099.34,1580.89L1099.34,1486.18L1205.16,1486.18L1205.16,1580.89L1262.65,1580.89L1293.06,1478.78L1297.93,1470.42C1215.53,1422.44 1164.68,1333.99 1164.68,1238.63C1164.68,1091.48 1285.77,970.398 1432.92,970.398C1463.87,970.398 1494.59,975.755 1523.71,986.231L1506.45,1023.25C1482.78,1015.17 1457.93,1011.05 1432.92,1011.05C1308.07,1011.05 1205.34,1113.78 1205.34,1238.63C1205.34,1318.22 1247.08,1392.23 1315.19,1433.4L1332.5,1396.3C1278.67,1362.02 1245.99,1302.45 1245.99,1238.63C1245.99,1136.09 1330.37,1051.7 1432.92,1051.7C1451.99,1051.7 1470.96,1054.62 1489.15,1060.36L1471.78,1097.61C1459.12,1094.12 1446.05,1092.35 1432.92,1092.35C1352.67,1092.35 1286.64,1158.39 1286.64,1238.63C1286.64,1286.68 1310.31,1331.77 1349.87,1359.05L1367.39,1321.48C1342.09,1301.46 1327.3,1270.9 1327.3,1238.63C1327.3,1180.69 1374.98,1133.01 1432.92,1133.01C1440.09,1133.01 1447.24,1133.74 1454.26,1135.19L1436.29,1173.81C1435.17,1173.75 1434.04,1173.73 1432.92,1173.73C1397.31,1173.73 1368.01,1203.03 1368.01,1238.63C1368.01,1255.05 1374.24,1270.87 1385.43,1282.88L1429.55,1303.45C1430.67,1303.51 1431.8,1303.54 1432.92,1303.54C1468.53,1303.54 1497.83,1274.24 1497.83,1238.63C1497.83,1222.22 1491.6,1206.4 1480.41,1194.39L1498.44,1155.79C1523.75,1175.81 1538.54,1206.36 1538.54,1238.63C1538.54,1296.58 1490.86,1344.26 1432.92,1344.26C1425.75,1344.26 1418.6,1343.53 1411.58,1342.08L1394.06,1379.66C1406.72,1383.14 1419.79,1384.91 1432.92,1384.91C1513.17,1384.91 1579.2,1318.88 1579.2,1238.63C1579.2,1190.58 1555.52,1145.5 1515.97,1118.22L1533.34,1080.97C1587.17,1115.25 1619.85,1174.82 1619.85,1238.63C1619.85,1341.18 1535.47,1425.57 1432.92,1425.57C1413.85,1425.57 1394.88,1422.65 1376.69,1416.91L1359.39,1454.01C1383.06,1462.09 1407.91,1466.22 1432.92,1466.22C1557.77,1466.22 1660.5,1363.48 1660.5,1238.63C1660.5,1159.05 1618.76,1085.03 1550.65,1043.87L1567.91,1006.84C1650.31,1054.83 1701.15,1143.28 1701.15,1238.63C1701.15,1385.78 1580.07,1506.87 1432.92,1506.87C1401.97,1506.87 1371.25,1501.51 1342.13,1491.04L1339.13,1498.77L1304.11,1611.05L1169.89,1611.05L1169.89,1527.24L1134.61,1527.24L1134.61,1611.05L1028.79,1611.05L1028.79,1527.24L993.509,1527.24L993.509,2316.43L1021.94,2316.43L1021.94,2372.53L880.823,2372.53L880.823,2634.14L1701.58,2634.14L1701.58,2372.53L1702.09,2372.53L1702.09,2290.14L1744.65,2290.14C1749.08,2306.01 1763.65,2317.07 1780.13,2317.07C1800.35,2317.07 1816.98,2300.43 1816.98,2280.22C1816.98,2260.01 1800.35,2243.37 1780.13,2243.37C1763.65,2243.37 1749.08,2254.43 1744.65,2270.3L1702.09,2270.3L1702.09,979.24L1744.65,979.24C1749.08,995.111 1763.65,1006.17 1780.13,1006.17C1800.35,1006.17 1816.98,989.534 1816.98,969.32C1816.98,949.107 1800.35,932.473 1780.13,932.473C1763.65,932.473 1749.08,943.529 1744.65,959.4L1702.09,959.4L1702.09,750.233L1607.18,750.233L1607.18,713.801L1721.22,713.801C1734.48,713.811 1747.21,719.083 1756.6,728.454C1783.32,755.176 1810.04,781.899 1836.77,808.622C1846.14,818.005 1851.41,830.735 1851.42,843.996L1851.42,2549.49C1851.42,2549.49 1851.42,2549.49 1851.42,2549.5C1851.42,2608.03 1803.25,2656.2 1744.72,2656.2C1744.71,2656.2 1744.71,2656.2 1744.7,2656.2L773.178,2656.2L773.095,2656.19Z" style="fill:none;fill-rule:nonzero;stroke:white;stroke-width:9.56px;"/>
            </g>
            <g transform="matrix(0.239349,0,0,0.239349,674.696,556.698)">
                <path d="M766.724,1036.91L766.724,1000.05L783.147,1009.95L783.155,1472.35L754.813,1551.99L754.834,2644.44" style="fill:none;fill-rule:nonzero;stroke:white;stroke-width:9.56px;"/>
            </g>
            <g transform="matrix(0.239349,0,0,0.239349,674.696,556.698)">
                <path d="M578.352,1069.48L545.78,1053.19L545.78,1036.91L766.724,1036.91" style="fill:none;fill-rule:nonzero;stroke:white;stroke-width:9.56px;"/>
            </g>
            <g transform="matrix(0.239349,0,0,0.239349,674.696,556.698)">
                <path d="M766.724,1085.77L766.724,1036.91L545.78,1036.91L545.78,1053.19L578.352,1069.48" style="fill:none;fill-rule:nonzero;stroke:white;stroke-width:9.56px;"/>
            </g>
            <g transform="matrix(0.239349,0,0,0.239349,674.696,556.698)">
                <path d="M766.724,1207.91L766.724,1085.77" style="fill:none;fill-rule:nonzero;stroke:white;stroke-width:9.56px;"/>
            </g>
            <g transform="matrix(0.239349,0,0,0.239349,674.696,556.698)">
                <path d="M766.724,1245.15L766.724,1216.06L545.78,1216.06L545.78,1118.34L638.549,1118.34L654.835,1211.83L654.835,1118.34L766.724,1118.34L766.724,1207.91" style="fill:none;fill-rule:nonzero;stroke:white;stroke-width:9.56px;"/>
            </g>
            <g transform="matrix(0.239349,0,0,0.239349,674.696,556.698)">
                <path d="M766.724,1248.63L766.724,1245.15" style="fill:none;fill-rule:nonzero;stroke:white;stroke-width:9.56px;"/>
            </g>
            <g transform="matrix(0.239349,0,0,0.239349,674.696,556.698)">
                <path d="M744.816,1378.92L766.724,1378.92L766.724,1346.34L545.78,1346.34L654.835,1297.49L545.78,1248.63L766.724,1248.63" style="fill:none;fill-rule:nonzero;stroke:white;stroke-width:9.56px;"/>
            </g>
            <g transform="matrix(0.239349,0,0,0.239349,674.696,556.698)">
                <path d="M554.851,1378.92L554.851,1476.63L654.835,1476.63L654.835,1378.92L744.816,1378.92" style="fill:none;fill-rule:nonzero;stroke:white;stroke-width:9.56px;"/>
            </g>
            <g transform="matrix(0.239349,0,0,0.239349,674.696,556.698)">
                <path d="M700.847,1620.76L738.38,1620.76L738.38,1550.93L766.724,1472.35L766.724,1378.92L654.835,1378.92L654.835,1476.63L554.851,1476.63L554.851,1378.92" style="fill:none;fill-rule:nonzero;stroke:white;stroke-width:9.56px;"/>
            </g>
            <g transform="matrix(0.239349,0,0,0.239349,674.696,556.698)">
                <path d="M620.896,1562.01L620.896,1620.76L700.847,1620.76" style="fill:none;fill-rule:nonzero;stroke:white;stroke-width:9.56px;"/>
            </g>
            <g transform="matrix(0.239349,0,0,0.239349,674.696,556.698)">
                <path d="M738.38,1650.06L738.38,1620.76L620.896,1620.76L620.896,1562.01" style="fill:none;fill-rule:nonzero;stroke:white;stroke-width:9.56px;"/>
            </g>
            <g transform="matrix(0.239349,0,0,0.239349,674.696,556.698)">
                <path d="M738.38,1654.51L738.38,1650.06" style="fill:none;fill-rule:nonzero;stroke:white;stroke-width:9.56px;"/>
            </g>
            <g transform="matrix(0.239349,0,0,0.239349,674.696,556.698)">
                <path d="M711.721,1683.88L738.38,1683.88L738.38,1656.66" style="fill:none;fill-rule:nonzero;stroke:white;stroke-width:9.56px;"/>
            </g>
            <g transform="matrix(0.239349,0,0,0.239349,674.696,556.698)">
                <path d="M620.896,1654.51L620.896,1683.88L711.721,1683.88" style="fill:none;fill-rule:nonzero;stroke:white;stroke-width:9.56px;"/>
            </g>
            <g transform="matrix(0.239349,0,0,0.239349,674.696,556.698)">
                <path d="M620.896,1693.71L620.896,1654.51" style="fill:none;fill-rule:nonzero;stroke:white;stroke-width:9.56px;"/>
            </g>
            <g transform="matrix(0.239349,0,0,0.239349,674.696,556.698)">
                <path d="M620.896,1713.25L620.896,1693.71" style="fill:none;fill-rule:nonzero;stroke:white;stroke-width:9.56px;"/>
            </g>
            <g transform="matrix(0.239349,0,0,0.239349,674.696,556.698)">
                <path d="M738.38,1713.25L738.38,1683.88L620.896,1683.88L620.896,1713.25" style="fill:none;fill-rule:nonzero;stroke:white;stroke-width:9.56px;"/>
            </g>
            <g transform="matrix(0.239349,0,0,0.239349,674.696,556.698)">
                <path d="M679.638,1781.27L679.638,1747L738.38,1747L738.38,1713.25" style="fill:none;fill-rule:nonzero;stroke:white;stroke-width:9.56px;"/>
            </g>
            <g transform="matrix(0.239349,0,0,0.239349,674.696,556.698)">
                <path d="M717.123,1805.74L738.38,1805.74L738.38,1747L679.638,1747L679.638,1781.27" style="fill:none;fill-rule:nonzero;stroke:white;stroke-width:9.56px;"/>
            </g>
            <g transform="matrix(0.239349,0,0,0.239349,674.696,556.698)">
                <path d="M620.896,1747L620.896,1805.74L717.123,1805.74" style="fill:none;fill-rule:nonzero;stroke:white;stroke-width:9.56px;"/>
            </g>
            <g transform="matrix(0.239349,0,0,0.239349,674.696,556.698)">
                <path d="M738.38,1819.92L738.38,1805.74L620.896,1805.74L620.896,1747" style="fill:none;fill-rule:nonzero;stroke:white;stroke-width:9.56px;"/>
            </g>
            <g transform="matrix(0.239349,0,0,0.239349,674.696,556.698)">
                <path d="M728.59,1898.24L738.38,1898.24L738.38,1819.92" style="fill:none;fill-rule:nonzero;stroke:white;stroke-width:9.56px;"/>
            </g>
            <g transform="matrix(0.239349,0,0,0.239349,674.696,556.698)">
                <path d="M688.779,1990.73L738.38,1990.73L738.38,1839.5L620.896,1839.5L620.896,1898.24L728.59,1898.24" style="fill:none;fill-rule:nonzero;stroke:white;stroke-width:9.56px;"/>
            </g>
            <g transform="matrix(0.239349,0,0,0.239349,674.696,556.698)">
                <path d="M620.896,1990.73L688.779,1990.73" style="fill:none;fill-rule:nonzero;stroke:white;stroke-width:9.56px;"/>
            </g>
            <g transform="matrix(0.239349,0,0,0.239349,674.696,556.698)">
                <path d="M738.38,2017.02L738.38,1990.73L620.896,1990.73" style="fill:none;fill-rule:nonzero;stroke:white;stroke-width:9.56px;"/>
            </g>
            <g transform="matrix(0.239349,0,0,0.239349,674.696,556.698)">
                <path d="M738.38,2063.65L738.38,2017.02" style="fill:none;fill-rule:nonzero;stroke:white;stroke-width:9.56px;"/>
            </g>
            <g transform="matrix(0.239349,0,0,0.239349,674.696,556.698)">
                <path d="M649.985,2063.65L738.38,2063.65" style="fill:none;fill-rule:nonzero;stroke:white;stroke-width:9.56px;"/>
            </g>
            <g transform="matrix(0.239349,0,0,0.239349,674.696,556.698)">
                <path d="M620.896,2063.65L647.959,2063.65" style="fill:none;fill-rule:nonzero;stroke:white;stroke-width:9.56px;"/>
            </g>
            <g transform="matrix(0.239349,0,0,0.239349,674.696,556.698)">
                <path d="M679.638,2122.32L679.638,2063.65L620.896,2063.65" style="fill:none;fill-rule:nonzero;stroke:white;stroke-width:9.56px;"/>
            </g>
            <g transform="matrix(0.239349,0,0,0.239349,674.696,556.698)">
                <path d="M620.896,2122.39L679.638,2122.39L679.638,2112.6" style="fill:none;fill-rule:nonzero;stroke:white;stroke-width:9.56px;"/>
            </g>
            <g transform="matrix(0.239349,0,0,0.239349,674.696,556.698)">
                <path d="M695.865,2214.88L738.38,2214.88L738.38,2122.39L620.896,2122.39" style="fill:none;fill-rule:nonzero;stroke:white;stroke-width:9.56px;"/>
            </g>
            <g transform="matrix(0.239349,0,0,0.239349,674.696,556.698)">
                <path d="M620.896,2156.14L620.896,2214.88L695.865,2214.88" style="fill:none;fill-rule:nonzero;stroke:white;stroke-width:9.56px;"/>
            </g>
            <g transform="matrix(0.239349,0,0,0.239349,674.696,556.698)">
                <path d="M738.38,2234.09L738.38,2214.88L620.896,2214.88L620.896,2156.14" style="fill:none;fill-rule:nonzero;stroke:white;stroke-width:9.56px;"/>
            </g>
            <g transform="matrix(0.239349,0,0,0.239349,674.696,556.698)">
                <path d="M738.38,2248.64L738.38,2234.09" style="fill:none;fill-rule:nonzero;stroke:white;stroke-width:9.56px;"/>
            </g>
            <g transform="matrix(0.239349,0,0,0.239349,674.696,556.698)">
                <path d="M738.38,2350.77L738.38,2307.38L620.896,2307.38L620.896,2248.64L679.638,2248.64L679.638,2288.8L722.502,2248.64L738.38,2248.64" style="fill:none;fill-rule:nonzero;stroke:white;stroke-width:9.56px;"/>
            </g>
            <g transform="matrix(0.239349,0,0,0.239349,674.696,556.698)">
                <path d="M728.59,2399.87L738.38,2399.87L738.38,2350.77" style="fill:none;fill-rule:nonzero;stroke:white;stroke-width:9.56px;"/>
            </g>
            <g transform="matrix(0.239349,0,0,0.239349,674.696,556.698)">
                <path d="M738.38,2444.29L738.38,2341.13L620.896,2341.13L620.896,2399.87L728.59,2399.87" style="fill:none;fill-rule:nonzero;stroke:white;stroke-width:9.56px;"/>
            </g>
            <g transform="matrix(0.239349,0,0,0.239349,674.696,556.698)">
                <path d="M679.638,2482.58L679.638,2492.37L738.38,2492.37L738.38,2444.29" style="fill:none;fill-rule:nonzero;stroke:white;stroke-width:9.56px;"/>
            </g>
            <g transform="matrix(0.239349,0,0,0.239349,674.696,556.698)">
                <path d="M740.14,2645.42L740.02,2533.46L739.901,2492.37L620.896,2492.37L620.896,2433.63L679.638,2433.63L679.638,2482.58" style="fill:none;fill-rule:nonzero;stroke:white;stroke-width:9.56px;"/>
            </g>
            <g transform="matrix(1,0,0,0.621053,0,275.623)">
                <path d="M912.171,727.807L912.171,740.713L981.157,740.713L981.157,727.338" style="fill:none;stroke:white;stroke-width:4.84px;stroke-miterlimit:1.5;"/>
            </g>
            <g transform="matrix(1,0,0,0.621053,74.6174,275.623)">
                <path d="M912.171,727.807L912.171,740.713L981.157,740.713L981.157,727.338" style="fill:none;stroke:white;stroke-width:4.84px;stroke-miterlimit:1.5;"/>
            </g>
        </g>
        <g transform="matrix(0.567614,0,0,0.567614,838.896,1049.23)">
            <g transform="matrix(0.239349,0,0,0.239349,674.696,556.698)">
                <path d="M773.095,2656.19C756.777,2653.32 747.711,2648.54 740.778,2641.55L547.235,2448C537.865,2438.62 532.592,2425.89 532.582,2412.63L532.582,848.859C532.582,848.854 532.582,848.849 532.582,848.843C532.582,774.761 593.543,713.801 667.625,713.801C667.63,713.801 667.635,713.801 667.64,713.801L975.222,713.801L975.222,750.233L880.316,750.233L880.316,959.4L837.76,959.4C833.323,943.529 818.753,932.473 802.273,932.473C795.247,932.473 788.364,934.483 782.442,938.265L752.979,911.903C766.462,893.653 773.74,871.55 773.74,848.859C773.74,790.654 725.845,742.759 667.64,742.759C609.436,742.759 561.54,790.654 561.54,848.859C561.54,848.859 561.54,848.859 561.54,848.859C561.54,907.064 609.436,954.959 667.64,954.959C694.372,954.959 720.14,944.857 739.749,926.689L769.213,953.051C766.722,958.113 765.426,963.679 765.426,969.32C765.426,989.534 782.059,1006.17 802.273,1006.17C818.753,1006.17 833.323,995.112 837.76,979.24L880.316,979.24L880.316,2270.3L837.76,2270.3C833.323,2254.43 818.753,2243.37 802.273,2243.37C782.06,2243.37 765.426,2260.01 765.426,2280.22C765.426,2300.43 782.06,2317.07 802.273,2317.07C818.753,2317.07 833.323,2306.01 837.76,2290.14L880.316,2290.14L880.316,2324.62L958.234,2324.4L958.234,1486.18L1064.06,1486.18L1064.06,1580.89L1099.34,1580.89L1099.34,1486.18L1205.16,1486.18L1205.16,1580.89L1262.65,1580.89L1293.06,1478.78L1297.93,1470.42C1215.53,1422.44 1164.68,1333.99 1164.68,1238.63C1164.68,1091.48 1285.77,970.398 1432.92,970.398C1463.87,970.398 1494.59,975.755 1523.71,986.231L1506.45,1023.25C1482.78,1015.17 1457.93,1011.05 1432.92,1011.05C1308.07,1011.05 1205.34,1113.78 1205.34,1238.63C1205.34,1318.22 1247.08,1392.23 1315.19,1433.4L1332.5,1396.3C1278.67,1362.02 1245.99,1302.45 1245.99,1238.63C1245.99,1136.09 1330.37,1051.7 1432.92,1051.7C1451.99,1051.7 1470.96,1054.62 1489.15,1060.36L1471.78,1097.61C1459.12,1094.12 1446.05,1092.35 1432.92,1092.35C1352.67,1092.35 1286.64,1158.39 1286.64,1238.63C1286.64,1286.68 1310.31,1331.77 1349.87,1359.05L1367.39,1321.48C1342.09,1301.46 1327.3,1270.9 1327.3,1238.63C1327.3,1180.69 1374.98,1133.01 1432.92,1133.01C1440.09,1133.01 1447.24,1133.74 1454.26,1135.19L1436.29,1173.81C1435.17,1173.75 1434.04,1173.73 1432.92,1173.73C1397.31,1173.73 1368.01,1203.03 1368.01,1238.63C1368.01,1255.05 1374.24,1270.87 1385.43,1282.88L1429.55,1303.45C1430.67,1303.51 1431.8,1303.54 1432.92,1303.54C1468.53,1303.54 1497.83,1274.24 1497.83,1238.63C1497.83,1222.22 1491.6,1206.4 1480.41,1194.39L1498.44,1155.79C1523.75,1175.81 1538.54,1206.36 1538.54,1238.63C1538.54,1296.58 1490.86,1344.26 1432.92,1344.26C1425.75,1344.26 1418.6,1343.53 1411.58,1342.08L1394.06,1379.66C1406.72,1383.14 1419.79,1384.91 1432.92,1384.91C1513.17,1384.91 1579.2,1318.88 1579.2,1238.63C1579.2,1190.58 1555.52,1145.5 1515.97,1118.22L1533.34,1080.97C1587.17,1115.25 1619.85,1174.82 1619.85,1238.63C1619.85,1341.18 1535.47,1425.57 1432.92,1425.57C1413.85,1425.57 1394.88,1422.65 1376.69,1416.91L1359.39,1454.01C1383.06,1462.09 1407.91,1466.22 1432.92,1466.22C1557.77,1466.22 1660.5,1363.48 1660.5,1238.63C1660.5,1159.05 1618.76,1085.03 1550.65,1043.87L1567.91,1006.84C1650.31,1054.83 1701.15,1143.28 1701.15,1238.63C1701.15,1385.78 1580.07,1506.87 1432.92,1506.87C1401.97,1506.87 1371.25,1501.51 1342.13,1491.04L1339.13,1498.77L1304.11,1611.05L1169.89,1611.05L1169.89,1527.24L1134.61,1527.24L1134.61,1611.05L1028.79,1611.05L1028.79,1527.24L993.509,1527.24L993.509,2316.43L1021.94,2316.43L1021.94,2372.53L880.823,2372.53L880.823,2634.14L1701.58,2634.14L1701.58,2372.53L1702.09,2372.53L1702.09,2290.14L1744.65,2290.14C1749.08,2306.01 1763.65,2317.07 1780.13,2317.07C1800.35,2317.07 1816.98,2300.43 1816.98,2280.22C1816.98,2260.01 1800.35,2243.37 1780.13,2243.37C1763.65,2243.37 1749.08,2254.43 1744.65,2270.3L1702.09,2270.3L1702.09,979.24L1744.65,979.24C1749.08,995.111 1763.65,1006.17 1780.13,1006.17C1800.35,1006.17 1816.98,989.534 1816.98,969.32C1816.98,949.107 1800.35,932.473 1780.13,932.473C1763.65,932.473 1749.08,943.529 1744.65,959.4L1702.09,959.4L1702.09,750.233L1607.18,750.233L1607.18,713.801L1721.22,713.801C1734.48,713.811 1747.21,719.083 1756.6,728.454C1783.32,755.176 1810.04,781.899 1836.77,808.622C1846.14,818.005 1851.41,830.735 1851.42,843.996L1851.42,2549.49C1851.42,2549.49 1851.42,2549.49 1851.42,2549.5C1851.42,2608.03 1803.25,2656.2 1744.72,2656.2C1744.71,2656.2 1744.71,2656.2 1744.7,2656.2L773.178,2656.2L773.095,2656.19Z" style="fill:none;fill-rule:nonzero;stroke:white;stroke-width:9.56px;"/>
            </g>
            <g transform="matrix(0.239349,0,0,0.239349,674.696,556.698)">
                <path d="M766.724,1036.91L766.724,1000.05L783.147,1009.95L783.155,1472.35L754.813,1551.99L754.834,2644.44" style="fill:none;fill-rule:nonzero;stroke:white;stroke-width:9.56px;"/>
            </g>
            <g transform="matrix(0.239349,0,0,0.239349,674.696,556.698)">
                <path d="M578.352,1069.48L545.78,1053.19L545.78,1036.91L766.724,1036.91" style="fill:none;fill-rule:nonzero;stroke:white;stroke-width:9.56px;"/>
            </g>
            <g transform="matrix(0.239349,0,0,0.239349,674.696,556.698)">
                <path d="M766.724,1085.77L766.724,1036.91L545.78,1036.91L545.78,1053.19L578.352,1069.48" style="fill:none;fill-rule:nonzero;stroke:white;stroke-width:9.56px;"/>
            </g>
            <g transform="matrix(0.239349,0,0,0.239349,674.696,556.698)">
                <path d="M766.724,1207.91L766.724,1085.77" style="fill:none;fill-rule:nonzero;stroke:white;stroke-width:9.56px;"/>
            </g>
            <g transform="matrix(0.239349,0,0,0.239349,674.696,556.698)">
                <path d="M766.724,1245.15L766.724,1216.06L545.78,1216.06L545.78,1118.34L638.549,1118.34L654.835,1211.83L654.835,1118.34L766.724,1118.34L766.724,1207.91" style="fill:none;fill-rule:nonzero;stroke:white;stroke-width:9.56px;"/>
            </g>
            <g transform="matrix(0.239349,0,0,0.239349,674.696,556.698)">
                <path d="M766.724,1248.63L766.724,1245.15" style="fill:none;fill-rule:nonzero;stroke:white;stroke-width:9.56px;"/>
            </g>
            <g transform="matrix(0.239349,0,0,0.239349,674.696,556.698)">
                <path d="M744.816,1378.92L766.724,1378.92L766.724,1346.34L545.78,1346.34L654.835,1297.49L545.78,1248.63L766.724,1248.63" style="fill:none;fill-rule:nonzero;stroke:white;stroke-width:9.56px;"/>
            </g>
            <g transform="matrix(0.239349,0,0,0.239349,674.696,556.698)">
                <path d="M554.851,1378.92L554.851,1476.63L654.835,1476.63L654.835,1378.92L744.816,1378.92" style="fill:none;fill-rule:nonzero;stroke:white;stroke-width:9.56px;"/>
            </g>
            <g transform="matrix(0.239349,0,0,0.239349,674.696,556.698)">
                <path d="M700.847,1620.76L738.38,1620.76L738.38,1550.93L766.724,1472.35L766.724,1378.92L654.835,1378.92L654.835,1476.63L554.851,1476.63L554.851,1378.92" style="fill:none;fill-rule:nonzero;stroke:white;stroke-width:9.56px;"/>
            </g>
            <g transform="matrix(0.239349,0,0,0.239349,674.696,556.698)">
                <path d="M620.896,1562.01L620.896,1620.76L700.847,1620.76" style="fill:none;fill-rule:nonzero;stroke:white;stroke-width:9.56px;"/>
            </g>
            <g transform="matrix(0.239349,0,0,0.239349,674.696,556.698)">
                <path d="M738.38,1650.06L738.38,1620.76L620.896,1620.76L620.896,1562.01" style="fill:none;fill-rule:nonzero;stroke:white;stroke-width:9.56px;"/>
            </g>
            <g transform="matrix(0.239349,0,0,0.239349,674.696,556.698)">
                <path d="M738.38,1654.51L738.38,1650.06" style="fill:none;fill-rule:nonzero;stroke:white;stroke-width:9.56px;"/>
            </g>
            <g transform="matrix(0.239349,0,0,0.239349,674.696,556.698)">
                <path d="M711.721,1683.88L738.38,1683.88L738.38,1656.66" style="fill:none;fill-rule:nonzero;stroke:white;stroke-width:9.56px;"/>
            </g>
            <g transform="matrix(0.239349,0,0,0.239349,674.696,556.698)">
                <path d="M620.896,1654.51L620.896,1683.88L711.721,1683.88" style="fill:none;fill-rule:nonzero;stroke:white;stroke-width:9.56px;"/>
            </g>
            <g transform="matrix(0.239349,0,0,0.239349,674.696,556.698)">
                <path d="M620.896,1693.71L620.896,1654.51" style="fill:none;fill-rule:nonzero;stroke:white;stroke-width:9.56px;"/>
            </g>
            <g transform="matrix(0.239349,0,0,0.239349,674.696,556.698)">
                <path d="M620.896,1713.25L620.896,1693.71" style="fill:none;fill-rule:nonzero;stroke:white;stroke-width:9.56px;"/>
            </g>
            <g transform="matrix(0.239349,0,0,0.239349,674.696,556.698)">
                <path d="M738.38,1713.25L738.38,1683.88L620.896,1683.88L620.896,1713.25" style="fill:none;fill-rule:nonzero;stroke:white;stroke-width:9.56px;"/>
            </g>
            <g transform="matrix(0.239349,0,0,0.239349,674.696,556.698)">
                <path d="M679.638,1781.27L679.638,1747L738.38,1747L738.38,1713.25" style="fill:none;fill-rule:nonzero;stroke:white;stroke-width:9.56px;"/>
            </g>
            <g transform="matrix(0.239349,0,0,0.239349,674.696,556.698)">
                <path d="M717.123,1805.74L738.38,1805.74L738.38,1747L679.638,1747L679.638,1781.27" style="fill:none;fill-rule:nonzero;stroke:white;stroke-width:9.56px;"/>
            </g>
            <g transform="matrix(0.239349,0,0,0.239349,674.696,556.698)">
                <path d="M620.896,1747L620.896,1805.74L717.123,1805.74" style="fill:none;fill-rule:nonzero;stroke:white;stroke-width:9.56px;"/>
            </g>
            <g transform="matrix(0.239349,0,0,0.239349,674.696,556.698)">
                <path d="M738.38,1819.92L738.38,1805.74L620.896,1805.74L620.896,1747" style="fill:none;fill-rule:nonzero;stroke:white;stroke-width:9.56px;"/>
            </g>
            <g transform="matrix(0.239349,0,0,0.239349,674.696,556.698)">
                <path d="M728.59,1898.24L738.38,1898.24L738.38,1819.92" style="fill:none;fill-rule:nonzero;stroke:white;stroke-width:9.56px;"/>
            </g>
            <g transform="matrix(0.239349,0,0,0.239349,674.696,556.698)">
                <path d="M688.779,1990.73L738.38,1990.73L738.38,1839.5L620.896,1839.5L620.896,1898.24L728.59,1898.24" style="fill:none;fill-rule:nonzero;stroke:white;stroke-width:9.56px;"/>
            </g>
            <g transform="matrix(0.239349,0,0,0.239349,674.696,556.698)">
                <path d="M620.896,1990.73L688.779,1990.73" style="fill:none;fill-rule:nonzero;stroke:white;stroke-width:9.56px;"/>
            </g>
            <g transform="matrix(0.239349,0,0,0.239349,674.696,556.698)">
                <path d="M738.38,2017.02L738.38,1990.73L620.896,1990.73" style="fill:none;fill-rule:nonzero;stroke:white;stroke-width:9.56px;"/>
            </g>
            <g transform="matrix(0.239349,0,0,0.239349,674.696,556.698)">
                <path d="M738.38,2063.65L738.38,2017.02" style="fill:none;fill-rule:nonzero;stroke:white;stroke-width:9.56px;"/>
            </g>
            <g transform="matrix(0.239349,0,0,0.239349,674.696,556.698)">
                <path d="M649.985,2063.65L738.38,2063.65" style="fill:none;fill-rule:nonzero;stroke:white;stroke-width:9.56px;"/>
            </g>
            <g transform="matrix(0.239349,0,0,0.239349,674.696,556.698)">
                <path d="M620.896,2063.65L647.959,2063.65" style="fill:none;fill-rule:nonzero;stroke:white;stroke-width:9.56px;"/>
            </g>
            <g transform="matrix(0.239349,0,0,0.239349,674.696,556.698)">
                <path d="M679.638,2122.32L679.638,2063.65L620.896,2063.65" style="fill:none;fill-rule:nonzero;stroke:white;stroke-width:9.56px;"/>
            </g>
            <g transform="matrix(0.239349,0,0,0.239349,674.696,556.698)">
                <path d="M620.896,2122.39L679.638,2122.39L679.638,2112.6" style="fill:none;fill-rule:nonzero;stroke:white;stroke-width:9.56px;"/>
            </g>
            <g transform="matrix(0.239349,0,0,0.239349,674.696,556.698)">
                <path d="M695.865,2214.88L738.38,2214.88L738.38,2122.39L620.896,2122.39" style="fill:none;fill-rule:nonzero;stroke:white;stroke-width:9.56px;"/>
            </g>
            <g transform="matrix(0.239349,0,0,0.239349,674.696,556.698)">
                <path d="M620.896,2156.14L620.896,2214.88L695.865,2214.88" style="fill:none;fill-rule:nonzero;stroke:white;stroke-width:9.56px;"/>
            </g>
            <g transform="matrix(0.239349,0,0,0.239349,674.696,556.698)">
                <path d="M738.38,2234.09L738.38,2214.88L620.896,2214.88L620.896,2156.14" style="fill:none;fill-rule:nonzero;stroke:white;stroke-width:9.56px;"/>
            </g>
            <g transform="matrix(0.239349,0,0,0.239349,674.696,556.698)">
                <path d="M738.38,2248.64L738.38,2234.09" style="fill:none;fill-rule:nonzero;stroke:white;stroke-width:9.56px;"/>
            </g>
            <g transform="matrix(0.239349,0,0,0.239349,674.696,556.698)">
                <path d="M738.38,2350.77L738.38,2307.38L620.896,2307.38L620.896,2248.64L679.638,2248.64L679.638,2288.8L722.502,2248.64L738.38,2248.64" style="fill:none;fill-rule:nonzero;stroke:white;stroke-width:9.56px;"/>
            </g>
            <g transform="matrix(0.239349,0,0,0.239349,674.696,556.698)">
                <path d="M728.59,2399.87L738.38,2399.87L738.38,2350.77" style="fill:none;fill-rule:nonzero;stroke:white;stroke-width:9.56px;"/>
            </g>
            <g transform="matrix(0.239349,0,0,0.239349,674.696,556.698)">
                <path d="M738.38,2444.29L738.38,2341.13L620.896,2341.13L620.896,2399.87L728.59,2399.87" style="fill:none;fill-rule:nonzero;stroke:white;stroke-width:9.56px;"/>
            </g>
            <g transform="matrix(0.239349,0,0,0.239349,674.696,556.698)">
                <path d="M679.638,2482.58L679.638,2492.37L738.38,2492.37L738.38,2444.29" style="fill:none;fill-rule:nonzero;stroke:white;stroke-width:9.56px;"/>
            </g>
            <g transform="matrix(0.239349,0,0,0.239349,674.696,556.698)">
                <path d="M740.14,2645.42L740.02,2533.46L739.901,2492.37L620.896,2492.37L620.896,2433.63L679.638,2433.63L679.638,2482.58" style="fill:none;fill-rule:nonzero;stroke:white;stroke-width:9.56px;"/>
            </g>
            <g transform="matrix(1,0,0,0.621053,0,275.623)">
                <path d="M912.171,727.807L912.171,740.713L981.157,740.713L981.157,727.338" style="fill:none;stroke:white;stroke-width:4.84px;stroke-miterlimit:1.5;"/>
            </g>
            <g transform="matrix(1,0,0,0.621053,74.6174,275.623)">
                <path d="M912.171,727.807L912.171,740.713L981.157,740.713L981.157,727.338" style="fill:none;stroke:white;stroke-width:4.84px;stroke-miterlimit:1.5;"/>
            </g>
        </g>
        <g transform="matrix(0.567614,0,0,0.567614,415.091,1143.27)">
            <g transform="matrix(0.239349,0,0,0.239349,674.696,556.698)">
                <path d="M773.095,2656.19C756.777,2653.32 747.711,2648.54 740.778,2641.55L547.235,2448C537.865,2438.62 532.592,2425.89 532.582,2412.63L532.582,848.859C532.582,848.854 532.582,848.849 532.582,848.843C532.582,774.761 593.543,713.801 667.625,713.801C667.63,713.801 667.635,713.801 667.64,713.801L975.222,713.801L975.222,750.233L880.316,750.233L880.316,959.4L837.76,959.4C833.323,943.529 818.753,932.473 802.273,932.473C795.247,932.473 788.364,934.483 782.442,938.265L752.979,911.903C766.462,893.653 773.74,871.55 773.74,848.859C773.74,790.654 725.845,742.759 667.64,742.759C609.436,742.759 561.54,790.654 561.54,848.859C561.54,848.859 561.54,848.859 561.54,848.859C561.54,907.064 609.436,954.959 667.64,954.959C694.372,954.959 720.14,944.857 739.749,926.689L769.213,953.051C766.722,958.113 765.426,963.679 765.426,969.32C765.426,989.534 782.059,1006.17 802.273,1006.17C818.753,1006.17 833.323,995.112 837.76,979.24L880.316,979.24L880.316,2270.3L837.76,2270.3C833.323,2254.43 818.753,2243.37 802.273,2243.37C782.06,2243.37 765.426,2260.01 765.426,2280.22C765.426,2300.43 782.06,2317.07 802.273,2317.07C818.753,2317.07 833.323,2306.01 837.76,2290.14L880.316,2290.14L880.316,2324.62L958.234,2324.4L958.234,1486.18L1064.06,1486.18L1064.06,1580.89L1099.34,1580.89L1099.34,1486.18L1205.16,1486.18L1205.16,1580.89L1262.65,1580.89L1293.06,1478.78L1297.93,1470.42C1215.53,1422.44 1164.68,1333.99 1164.68,1238.63C1164.68,1091.48 1285.77,970.398 1432.92,970.398C1463.87,970.398 1494.59,975.755 1523.71,986.231L1506.45,1023.25C1482.78,1015.17 1457.93,1011.05 1432.92,1011.05C1308.07,1011.05 1205.34,1113.78 1205.34,1238.63C1205.34,1318.22 1247.08,1392.23 1315.19,1433.4L1332.5,1396.3C1278.67,1362.02 1245.99,1302.45 1245.99,1238.63C1245.99,1136.09 1330.37,1051.7 1432.92,1051.7C1451.99,1051.7 1470.96,1054.62 1489.15,1060.36L1471.78,1097.61C1459.12,1094.12 1446.05,1092.35 1432.92,1092.35C1352.67,1092.35 1286.64,1158.39 1286.64,1238.63C1286.64,1286.68 1310.31,1331.77 1349.87,1359.05L1367.39,1321.48C1342.09,1301.46 1327.3,1270.9 1327.3,1238.63C1327.3,1180.69 1374.98,1133.01 1432.92,1133.01C1440.09,1133.01 1447.24,1133.74 1454.26,1135.19L1436.29,1173.81C1435.17,1173.75 1434.04,1173.73 1432.92,1173.73C1397.31,1173.73 1368.01,1203.03 1368.01,1238.63C1368.01,1255.05 1374.24,1270.87 1385.43,1282.88L1429.55,1303.45C1430.67,1303.51 1431.8,1303.54 1432.92,1303.54C1468.53,1303.54 1497.83,1274.24 1497.83,1238.63C1497.83,1222.22 1491.6,1206.4 1480.41,1194.39L1498.44,1155.79C1523.75,1175.81 1538.54,1206.36 1538.54,1238.63C1538.54,1296.58 1490.86,1344.26 1432.92,1344.26C1425.75,1344.26 1418.6,1343.53 1411.58,1342.08L1394.06,1379.66C1406.72,1383.14 1419.79,1384.91 1432.92,1384.91C1513.17,1384.91 1579.2,1318.88 1579.2,1238.63C1579.2,1190.58 1555.52,1145.5 1515.97,1118.22L1533.34,1080.97C1587.17,1115.25 1619.85,1174.82 1619.85,1238.63C1619.85,1341.18 1535.47,1425.57 1432.92,1425.57C1413.85,1425.57 1394.88,1422.65 1376.69,1416.91L1359.39,1454.01C1383.06,1462.09 1407.91,1466.22 1432.92,1466.22C1557.77,1466.22 1660.5,1363.48 1660.5,1238.63C1660.5,1159.05 1618.76,1085.03 1550.65,1043.87L1567.91,1006.84C1650.31,1054.83 1701.15,1143.28 1701.15,1238.63C1701.15,1385.78 1580.07,1506.87 1432.92,1506.87C1401.97,1506.87 1371.25,1501.51 1342.13,1491.04L1339.13,1498.77L1304.11,1611.05L1169.89,1611.05L1169.89,1527.24L1134.61,1527.24L1134.61,1611.05L1028.79,1611.05L1028.79,1527.24L993.509,1527.24L993.509,2316.43L1021.94,2316.43L1021.94,2372.53L880.823,2372.53L880.823,2634.14L1701.58,2634.14L1701.58,2372.53L1702.09,2372.53L1702.09,2290.14L1744.65,2290.14C1749.08,2306.01 1763.65,2317.07 1780.13,2317.07C1800.35,2317.07 1816.98,2300.43 1816.98,2280.22C1816.98,2260.01 1800.35,2243.37 1780.13,2243.37C1763.65,2243.37 1749.08,2254.43 1744.65,2270.3L1702.09,2270.3L1702.09,979.24L1744.65,979.24C1749.08,995.111 1763.65,1006.17 1780.13,1006.17C1800.35,1006.17 1816.98,989.534 1816.98,969.32C1816.98,949.107 1800.35,932.473 1780.13,932.473C1763.65,932.473 1749.08,943.529 1744.65,959.4L1702.09,959.4L1702.09,750.233L1607.18,750.233L1607.18,713.801L1721.22,713.801C1734.48,713.811 1747.21,719.083 1756.6,728.454C1783.32,755.176 1810.04,781.899 1836.77,808.622C1846.14,818.005 1851.41,830.735 1851.42,843.996L1851.42,2549.49C1851.42,2549.49 1851.42,2549.49 1851.42,2549.5C1851.42,2608.03 1803.25,2656.2 1744.72,2656.2C1744.71,2656.2 1744.71,2656.2 1744.7,2656.2L773.178,2656.2L773.095,2656.19Z" style="fill:none;fill-rule:nonzero;stroke:white;stroke-width:9.56px;"/>
            </g>
            <g transform="matrix(0.239349,0,0,0.239349,674.696,556.698)">
                <path d="M766.724,1036.91L766.724,1000.05L783.147,1009.95L783.155,1472.35L754.813,1551.99L754.834,2644.44" style="fill:none;fill-rule:nonzero;stroke:white;stroke-width:9.56px;"/>
            </g>
            <g transform="matrix(0.239349,0,0,0.239349,674.696,556.698)">
                <path d="M578.352,1069.48L545.78,1053.19L545.78,1036.91L766.724,1036.91" style="fill:none;fill-rule:nonzero;stroke:white;stroke-width:9.56px;"/>
            </g>
            <g transform="matrix(0.239349,0,0,0.239349,674.696,556.698)">
                <path d="M766.724,1085.77L766.724,1036.91L545.78,1036.91L545.78,1053.19L578.352,1069.48" style="fill:none;fill-rule:nonzero;stroke:white;stroke-width:9.56px;"/>
            </g>
            <g transform="matrix(0.239349,0,0,0.239349,674.696,556.698)">
                <path d="M766.724,1207.91L766.724,1085.77" style="fill:none;fill-rule:nonzero;stroke:white;stroke-width:9.56px;"/>
            </g>
            <g transform="matrix(0.239349,0,0,0.239349,674.696,556.698)">
                <path d="M766.724,1245.15L766.724,1216.06L545.78,1216.06L545.78,1118.34L638.549,1118.34L654.835,1211.83L654.835,1118.34L766.724,1118.34L766.724,1207.91" style="fill:none;fill-rule:nonzero;stroke:white;stroke-width:9.56px;"/>
            </g>
            <g transform="matrix(0.239349,0,0,0.239349,674.696,556.698)">
                <path d="M766.724,1248.63L766.724,1245.15" style="fill:none;fill-rule:nonzero;stroke:white;stroke-width:9.56px;"/>
            </g>
            <g transform="matrix(0.239349,0,0,0.239349,674.696,556.698)">
                <path d="M744.816,1378.92L766.724,1378.92L766.724,1346.34L545.78,1346.34L654.835,1297.49L545.78,1248.63L766.724,1248.63" style="fill:none;fill-rule:nonzero;stroke:white;stroke-width:9.56px;"/>
            </g>
            <g transform="matrix(0.239349,0,0,0.239349,674.696,556.698)">
                <path d="M554.851,1378.92L554.851,1476.63L654.835,1476.63L654.835,1378.92L744.816,1378.92" style="fill:none;fill-rule:nonzero;stroke:white;stroke-width:9.56px;"/>
            </g>
            <g transform="matrix(0.239349,0,0,0.239349,674.696,556.698)">
                <path d="M700.847,1620.76L738.38,1620.76L738.38,1550.93L766.724,1472.35L766.724,1378.92L654.835,1378.92L654.835,1476.63L554.851,1476.63L554.851,1378.92" style="fill:none;fill-rule:nonzero;stroke:white;stroke-width:9.56px;"/>
            </g>
            <g transform="matrix(0.239349,0,0,0.239349,674.696,556.698)">
                <path d="M620.896,1562.01L620.896,1620.76L700.847,1620.76" style="fill:none;fill-rule:nonzero;stroke:white;stroke-width:9.56px;"/>
            </g>
            <g transform="matrix(0.239349,0,0,0.239349,674.696,556.698)">
                <path d="M738.38,1650.06L738.38,1620.76L620.896,1620.76L620.896,1562.01" style="fill:none;fill-rule:nonzero;stroke:white;stroke-width:9.56px;"/>
            </g>
            <g transform="matrix(0.239349,0,0,0.239349,674.696,556.698)">
                <path d="M738.38,1654.51L738.38,1650.06" style="fill:none;fill-rule:nonzero;stroke:white;stroke-width:9.56px;"/>
            </g>
            <g transform="matrix(0.239349,0,0,0.239349,674.696,556.698)">
                <path d="M711.721,1683.88L738.38,1683.88L738.38,1656.66" style="fill:none;fill-rule:nonzero;stroke:white;stroke-width:9.56px;"/>
            </g>
            <g transform="matrix(0.239349,0,0,0.239349,674.696,556.698)">
                <path d="M620.896,1654.51L620.896,1683.88L711.721,1683.88" style="fill:none;fill-rule:nonzero;stroke:white;stroke-width:9.56px;"/>
            </g>
            <g transform="matrix(0.239349,0,0,0.239349,674.696,556.698)">
                <path d="M620.896,1693.71L620.896,1654.51" style="fill:none;fill-rule:nonzero;stroke:white;stroke-width:9.56px;"/>
            </g>
            <g transform="matrix(0.239349,0,0,0.239349,674.696,556.698)">
                <path d="M620.896,1713.25L620.896,1693.71" style="fill:none;fill-rule:nonzero;stroke:white;stroke-width:9.56px;"/>
            </g>
            <g transform="matrix(0.239349,0,0,0.239349,674.696,556.698)">
                <path d="M738.38,1713.25L738.38,1683.88L620.896,1683.88L620.896,1713.25" style="fill:none;fill-rule:nonzero;stroke:white;stroke-width:9.56px;"/>
            </g>
            <g transform="matrix(0.239349,0,0,0.239349,674.696,556.698)">
                <path d="M679.638,1781.27L679.638,1747L738.38,1747L738.38,1713.25" style="fill:none;fill-rule:nonzero;stroke:white;stroke-width:9.56px;"/>
            </g>
            <g transform="matrix(0.239349,0,0,0.239349,674.696,556.698)">
                <path d="M717.123,1805.74L738.38,1805.74L738.38,1747L679.638,1747L679.638,1781.27" style="fill:none;fill-rule:nonzero;stroke:white;stroke-width:9.56px;"/>
            </g>
            <g transform="matrix(0.239349,0,0,0.239349,674.696,556.698)">
                <path d="M620.896,1747L620.896,1805.74L717.123,1805.74" style="fill:none;fill-rule:nonzero;stroke:white;stroke-width:9.56px;"/>
            </g>
            <g transform="matrix(0.239349,0,0,0.239349,674.696,556.698)">
                <path d="M738.38,1819.92L738.38,1805.74L620.896,1805.74L620.896,1747" style="fill:none;fill-rule:nonzero;stroke:white;stroke-width:9.56px;"/>
            </g>
            <g transform="matrix(0.239349,0,0,0.239349,674.696,556.698)">
                <path d="M728.59,1898.24L738.38,1898.24L738.38,1819.92" style="fill:none;fill-rule:nonzero;stroke:white;stroke-width:9.56px;"/>
            </g>
            <g transform="matrix(0.239349,0,0,0.239349,674.696,556.698)">
                <path d="M688.779,1990.73L738.38,1990.73L738.38,1839.5L620.896,1839.5L620.896,1898.24L728.59,1898.24" style="fill:none;fill-rule:nonzero;stroke:white;stroke-width:9.56px;"/>
            </g>
            <g transform="matrix(0.239349,0,0,0.239349,674.696,556.698)">
                <path d="M620.896,1990.73L688.779,1990.73" style="fill:none;fill-rule:nonzero;stroke:white;stroke-width:9.56px;"/>
            </g>
            <g transform="matrix(0.239349,0,0,0.239349,674.696,556.698)">
                <path d="M738.38,2017.02L738.38,1990.73L620.896,1990.73" style="fill:none;fill-rule:nonzero;stroke:white;stroke-width:9.56px;"/>
            </g>
            <g transform="matrix(0.239349,0,0,0.239349,674.696,556.698)">
                <path d="M738.38,2063.65L738.38,2017.02" style="fill:none;fill-rule:nonzero;stroke:white;stroke-width:9.56px;"/>
            </g>
            <g transform="matrix(0.239349,0,0,0.239349,674.696,556.698)">
                <path d="M649.985,2063.65L738.38,2063.65" style="fill:none;fill-rule:nonzero;stroke:white;stroke-width:9.56px;"/>
            </g>
            <g transform="matrix(0.239349,0,0,0.239349,674.696,556.698)">
                <path d="M620.896,2063.65L647.959,2063.65" style="fill:none;fill-rule:nonzero;stroke:white;stroke-width:9.56px;"/>
            </g>
            <g transform="matrix(0.239349,0,0,0.239349,674.696,556.698)">
                <path d="M679.638,2122.32L679.638,2063.65L620.896,2063.65" style="fill:none;fill-rule:nonzero;stroke:white;stroke-width:9.56px;"/>
            </g>
            <g transform="matrix(0.239349,0,0,0.239349,674.696,556.698)">
                <path d="M620.896,2122.39L679.638,2122.39L679.638,2112.6" style="fill:none;fill-rule:nonzero;stroke:white;stroke-width:9.56px;"/>
            </g>
            <g transform="matrix(0.239349,0,0,0.239349,674.696,556.698)">
                <path d="M695.865,2214.88L738.38,2214.88L738.38,2122.39L620.896,2122.39" style="fill:none;fill-rule:nonzero;stroke:white;stroke-width:9.56px;"/>
            </g>
            <g transform="matrix(0.239349,0,0,0.239349,674.696,556.698)">
                <path d="M620.896,2156.14L620.896,2214.88L695.865,2214.88" style="fill:none;fill-rule:nonzero;stroke:white;stroke-width:9.56px;"/>
            </g>
            <g transform="matrix(0.239349,0,0,0.239349,674.696,556.698)">
                <path d="M738.38,2234.09L738.38,2214.88L620.896,2214.88L620.896,2156.14" style="fill:none;fill-rule:nonzero;stroke:white;stroke-width:9.56px;"/>
            </g>
            <g transform="matrix(0.239349,0,0,0.239349,674.696,556.698)">
                <path d="M738.38,2248.64L738.38,2234.09" style="fill:none;fill-rule:nonzero;stroke:white;stroke-width:9.56px;"/>
            </g>
            <g transform="matrix(0.239349,0,0,0.239349,674.696,556.698)">
                <path d="M738.38,2350.77L738.38,2307.38L620.896,2307.38L620.896,2248.64L679.638,2248.64L679.638,2288.8L722.502,2248.64L738.38,2248.64" style="fill:none;fill-rule:nonzero;stroke:white;stroke-width:9.56px;"/>
            </g>
            <g transform="matrix(0.239349,0,0,0.239349,674.696,556.698)">
                <path d="M728.59,2399.87L738.38,2399.87L738.38,2350.77" style="fill:none;fill-rule:nonzero;stroke:white;stroke-width:9.56px;"/>
            </g>
            <g transform="matrix(0.239349,0,0,0.239349,674.696,556.698)">
                <path d="M738.38,2444.29L738.38,2341.13L620.896,2341.13L620.896,2399.87L728.59,2399.87" style="fill:none;fill-rule:nonzero;stroke:white;stroke-width:9.56px;"/>
            </g>
            <g transform="matrix(0.239349,0,0,0.239349,674.696,556.698)">
                <path d="M679.638,2482.58L679.638,2492.37L738.38,2492.37L738.38,2444.29" style="fill:none;fill-rule:nonzero;stroke:white;stroke-width:9.56px;"/>
            </g>
            <g transform="matrix(0.239349,0,0,0.239349,674.696,556.698)">
                <path d="M740.14,2645.42L740.02,2533.46L739.901,2492.37L620.896,2492.37L620.896,2433.63L679.638,2433.63L679.638,2482.58" style="fill:none;fill-rule:nonzero;stroke:white;stroke-width:9.56px;"/>
            </g>
            <g transform="matrix(1,0,0,0.621053,0,275.623)">
                <path d="M912.171,727.807L912.171,740.713L981.157,740.713L981.157,727.338" style="fill:none;stroke:white;stroke-width:4.84px;stroke-miterlimit:1.5;"/>
            </g>
            <g transform="matrix(1,0,0,0.621053,74.6174,275.623)">
                <path d="M912.171,727.807L912.171,740.713L981.157,740.713L981.157,727.338" style="fill:none;stroke:white;stroke-width:4.84px;stroke-miterlimit:1.5;"/>
            </g>
        </g>
        <g transform="matrix(0.567614,0,0,0.567614,-10.0529,1049.23)">
            <g transform="matrix(0.239349,0,0,0.239349,674.696,556.698)">
                <path d="M773.095,2656.19C756.777,2653.32 747.711,2648.54 740.778,2641.55L547.235,2448C537.865,2438.62 532.592,2425.89 532.582,2412.63L532.582,848.859C532.582,848.854 532.582,848.849 532.582,848.843C532.582,774.761 593.543,713.801 667.625,713.801C667.63,713.801 667.635,713.801 667.64,713.801L975.222,713.801L975.222,750.233L880.316,750.233L880.316,959.4L837.76,959.4C833.323,943.529 818.753,932.473 802.273,932.473C795.247,932.473 788.364,934.483 782.442,938.265L752.979,911.903C766.462,893.653 773.74,871.55 773.74,848.859C773.74,790.654 725.845,742.759 667.64,742.759C609.436,742.759 561.54,790.654 561.54,848.859C561.54,848.859 561.54,848.859 561.54,848.859C561.54,907.064 609.436,954.959 667.64,954.959C694.372,954.959 720.14,944.857 739.749,926.689L769.213,953.051C766.722,958.113 765.426,963.679 765.426,969.32C765.426,989.534 782.059,1006.17 802.273,1006.17C818.753,1006.17 833.323,995.112 837.76,979.24L880.316,979.24L880.316,2270.3L837.76,2270.3C833.323,2254.43 818.753,2243.37 802.273,2243.37C782.06,2243.37 765.426,2260.01 765.426,2280.22C765.426,2300.43 782.06,2317.07 802.273,2317.07C818.753,2317.07 833.323,2306.01 837.76,2290.14L880.316,2290.14L880.316,2324.62L958.234,2324.4L958.234,1486.18L1064.06,1486.18L1064.06,1580.89L1099.34,1580.89L1099.34,1486.18L1205.16,1486.18L1205.16,1580.89L1262.65,1580.89L1293.06,1478.78L1297.93,1470.42C1215.53,1422.44 1164.68,1333.99 1164.68,1238.63C1164.68,1091.48 1285.77,970.398 1432.92,970.398C1463.87,970.398 1494.59,975.755 1523.71,986.231L1506.45,1023.25C1482.78,1015.17 1457.93,1011.05 1432.92,1011.05C1308.07,1011.05 1205.34,1113.78 1205.34,1238.63C1205.34,1318.22 1247.08,1392.23 1315.19,1433.4L1332.5,1396.3C1278.67,1362.02 1245.99,1302.45 1245.99,1238.63C1245.99,1136.09 1330.37,1051.7 1432.92,1051.7C1451.99,1051.7 1470.96,1054.62 1489.15,1060.36L1471.78,1097.61C1459.12,1094.12 1446.05,1092.35 1432.92,1092.35C1352.67,1092.35 1286.64,1158.39 1286.64,1238.63C1286.64,1286.68 1310.31,1331.77 1349.87,1359.05L1367.39,1321.48C1342.09,1301.46 1327.3,1270.9 1327.3,1238.63C1327.3,1180.69 1374.98,1133.01 1432.92,1133.01C1440.09,1133.01 1447.24,1133.74 1454.26,1135.19L1436.29,1173.81C1435.17,1173.75 1434.04,1173.73 1432.92,1173.73C1397.31,1173.73 1368.01,1203.03 1368.01,1238.63C1368.01,1255.05 1374.24,1270.87 1385.43,1282.88L1429.55,1303.45C1430.67,1303.51 1431.8,1303.54 1432.92,1303.54C1468.53,1303.54 1497.83,1274.24 1497.83,1238.63C1497.83,1222.22 1491.6,1206.4 1480.41,1194.39L1498.44,1155.79C1523.75,1175.81 1538.54,1206.36 1538.54,1238.63C1538.54,1296.58 1490.86,1344.26 1432.92,1344.26C1425.75,1344.26 1418.6,1343.53 1411.58,1342.08L1394.06,1379.66C1406.72,1383.14 1419.79,1384.91 1432.92,1384.91C1513.17,1384.91 1579.2,1318.88 1579.2,1238.63C1579.2,1190.58 1555.52,1145.5 1515.97,1118.22L1533.34,1080.97C1587.17,1115.25 1619.85,1174.82 1619.85,1238.63C1619.85,1341.18 1535.47,1425.57 1432.92,1425.57C1413.85,1425.57 1394.88,1422.65 1376.69,1416.91L1359.39,1454.01C1383.06,1462.09 1407.91,1466.22 1432.92,1466.22C1557.77,1466.22 1660.5,1363.48 1660.5,1238.63C1660.5,1159.05 1618.76,1085.03 1550.65,1043.87L1567.91,1006.84C1650.31,1054.83 1701.15,1143.28 1701.15,1238.63C1701.15,1385.78 1580.07,1506.87 1432.92,1506.87C1401.97,1506.87 1371.25,1501.51 1342.13,1491.04L1339.13,1498.77L1304.11,1611.05L1169.89,1611.05L1169.89,1527.24L1134.61,1527.24L1134.61,1611.05L1028.79,1611.05L1028.79,1527.24L993.509,1527.24L993.509,2316.43L1021.94,2316.43L1021.94,2372.53L880.823,2372.53L880.823,2634.14L1701.58,2634.14L1701.58,2372.53L1702.09,2372.53L1702.09,2290.14L1744.65,2290.14C1749.08,2306.01 1763.65,2317.07 1780.13,2317.07C1800.35,2317.07 1816.98,2300.43 1816.98,2280.22C1816.98,2260.01 1800.35,2243.37 1780.13,2243.37C1763.65,2243.37 1749.08,2254.43 1744.65,2270.3L1702.09,2270.3L1702.09,979.24L1744.65,979.24C1749.08,995.111 1763.65,1006.17 1780.13,1006.17C1800.35,1006.17 1816.98,989.534 1816.98,969.32C1816.98,949.107 1800.35,932.473 1780.13,932.473C1763.65,932.473 1749.08,943.529 1744.65,959.4L1702.09,959.4L1702.09,750.233L1607.18,750.233L1607.18,713.801L1721.22,713.801C1734.48,713.811 1747.21,719.083 1756.6,728.454C1783.32,755.176 1810.04,781.899 1836.77,808.622C1846.14,818.005 1851.41,830.735 1851.42,843.996L1851.42,2549.49C1851.42,2549.49 1851.42,2549.49 1851.42,2549.5C1851.42,2608.03 1803.25,2656.2 1744.72,2656.2C1744.71,2656.2 1744.71,2656.2 1744.7,2656.2L773.178,2656.2L773.095,2656.19Z" style="fill:none;fill-rule:nonzero;stroke:white;stroke-width:9.56px;"/>
            </g>
            <g transform="matrix(0.239349,0,0,0.239349,674.696,556.698)">
                <path d="M766.724,1036.91L766.724,1000.05L783.147,1009.95L783.155,1472.35L754.813,1551.99L754.834,2644.44" style="fill:none;fill-rule:nonzero;stroke:white;stroke-width:9.56px;"/>
            </g>
            <g transform="matrix(0.239349,0,0,0.239349,674.696,556.698)">
                <path d="M578.352,1069.48L545.78,1053.19L545.78,1036.91L766.724,1036.91" style="fill:none;fill-rule:nonzero;stroke:white;stroke-width:9.56px;"/>
            </g>
            <g transform="matrix(0.239349,0,0,0.239349,674.696,556.698)">
                <path d="M766.724,1085.77L766.724,1036.91L545.78,1036.91L545.78,1053.19L578.352,1069.48" style="fill:none;fill-rule:nonzero;stroke:white;stroke-width:9.56px;"/>
            </g>
            <g transform="matrix(0.239349,0,0,0.239349,674.696,556.698)">
                <path d="M766.724,1207.91L766.724,1085.77" style="fill:none;fill-rule:nonzero;stroke:white;stroke-width:9.56px;"/>
            </g>
            <g transform="matrix(0.239349,0,0,0.239349,674.696,556.698)">
                <path d="M766.724,1245.15L766.724,1216.06L545.78,1216.06L545.78,1118.34L638.549,1118.34L654.835,1211.83L654.835,1118.34L766.724,1118.34L766.724,1207.91" style="fill:none;fill-rule:nonzero;stroke:white;stroke-width:9.56px;"/>
            </g>
            <g transform="matrix(0.239349,0,0,0.239349,674.696,556.698)">
                <path d="M766.724,1248.63L766.724,1245.15" style="fill:none;fill-rule:nonzero;stroke:white;stroke-width:9.56px;"/>
            </g>
            <g transform="matrix(0.239349,0,0,0.239349,674.696,556.698)">
                <path d="M744.816,1378.92L766.724,1378.92L766.724,1346.34L545.78,1346.34L654.835,1297.49L545.78,1248.63L766.724,1248.63" style="fill:none;fill-rule:nonzero;stroke:white;stroke-width:9.56px;"/>
            </g>
            <g transform="matrix(0.239349,0,0,0.239349,674.696,556.698)">
                <path d="M554.851,1378.92L554.851,1476.63L654.835,1476.63L654.835,1378.92L744.816,1378.92" style="fill:none;fill-rule:nonzero;stroke:white;stroke-width:9.56px;"/>
            </g>
            <g transform="matrix(0.239349,0,0,0.239349,674.696,556.698)">
                <path d="M700.847,1620.76L738.38,1620.76L738.38,1550.93L766.724,1472.35L766.724,1378.92L654.835,1378.92L654.835,1476.63L554.851,1476.63L554.851,1378.92" style="fill:none;fill-rule:nonzero;stroke:white;stroke-width:9.56px;"/>
            </g>
            <g transform="matrix(0.239349,0,0,0.239349,674.696,556.698)">
                <path d="M620.896,1562.01L620.896,1620.76L700.847,1620.76" style="fill:none;fill-rule:nonzero;stroke:white;stroke-width:9.56px;"/>
            </g>
            <g transform="matrix(0.239349,0,0,0.239349,674.696,556.698)">
                <path d="M738.38,1650.06L738.38,1620.76L620.896,1620.76L620.896,1562.01" style="fill:none;fill-rule:nonzero;stroke:white;stroke-width:9.56px;"/>
            </g>
            <g transform="matrix(0.239349,0,0,0.239349,674.696,556.698)">
                <path d="M738.38,1654.51L738.38,1650.06" style="fill:none;fill-rule:nonzero;stroke:white;stroke-width:9.56px;"/>
            </g>
            <g transform="matrix(0.239349,0,0,0.239349,674.696,556.698)">
                <path d="M711.721,1683.88L738.38,1683.88L738.38,1656.66" style="fill:none;fill-rule:nonzero;stroke:white;stroke-width:9.56px;"/>
            </g>
            <g transform="matrix(0.239349,0,0,0.239349,674.696,556.698)">
                <path d="M620.896,1654.51L620.896,1683.88L711.721,1683.88" style="fill:none;fill-rule:nonzero;stroke:white;stroke-width:9.56px;"/>
            </g>
            <g transform="matrix(0.239349,0,0,0.239349,674.696,556.698)">
                <path d="M620.896,1693.71L620.896,1654.51" style="fill:none;fill-rule:nonzero;stroke:white;stroke-width:9.56px;"/>
            </g>
            <g transform="matrix(0.239349,0,0,0.239349,674.696,556.698)">
                <path d="M620.896,1713.25L620.896,1693.71" style="fill:none;fill-rule:nonzero;stroke:white;stroke-width:9.56px;"/>
            </g>
            <g transform="matrix(0.239349,0,0,0.239349,674.696,556.698)">
                <path d="M738.38,1713.25L738.38,1683.88L620.896,1683.88L620.896,1713.25" style="fill:none;fill-rule:nonzero;stroke:white;stroke-width:9.56px;"/>
            </g>
            <g transform="matrix(0.239349,0,0,0.239349,674.696,556.698)">
                <path d="M679.638,1781.27L679.638,1747L738.38,1747L738.38,1713.25" style="fill:none;fill-rule:nonzero;stroke:white;stroke-width:9.56px;"/>
            </g>
            <g transform="matrix(0.239349,0,0,0.239349,674.696,556.698)">
                <path d="M717.123,1805.74L738.38,1805.74L738.38,1747L679.638,1747L679.638,1781.27" style="fill:none;fill-rule:nonzero;stroke:white;stroke-width:9.56px;"/>
            </g>
            <g transform="matrix(0.239349,0,0,0.239349,674.696,556.698)">
                <path d="M620.896,1747L620.896,1805.74L717.123,1805.74" style="fill:none;fill-rule:nonzero;stroke:white;stroke-width:9.56px;"/>
            </g>
            <g transform="matrix(0.239349,0,0,0.239349,674.696,556.698)">
                <path d="M738.38,1819.92L738.38,1805.74L620.896,1805.74L620.896,1747" style="fill:none;fill-rule:nonzero;stroke:white;stroke-width:9.56px;"/>
            </g>
            <g transform="matrix(0.239349,0,0,0.239349,674.696,556.698)">
                <path d="M728.59,1898.24L738.38,1898.24L738.38,1819.92" style="fill:none;fill-rule:nonzero;stroke:white;stroke-width:9.56px;"/>
            </g>
            <g transform="matrix(0.239349,0,0,0.239349,674.696,556.698)">
                <path d="M688.779,1990.73L738.38,1990.73L738.38,1839.5L620.896,1839.5L620.896,1898.24L728.59,1898.24" style="fill:none;fill-rule:nonzero;stroke:white;stroke-width:9.56px;"/>
            </g>
            <g transform="matrix(0.239349,0,0,0.239349,674.696,556.698)">
                <path d="M620.896,1990.73L688.779,1990.73" style="fill:none;fill-rule:nonzero;stroke:white;stroke-width:9.56px;"/>
            </g>
            <g transform="matrix(0.239349,0,0,0.239349,674.696,556.698)">
                <path d="M738.38,2017.02L738.38,1990.73L620.896,1990.73" style="fill:none;fill-rule:nonzero;stroke:white;stroke-width:9.56px;"/>
            </g>
            <g transform="matrix(0.239349,0,0,0.239349,674.696,556.698)">
                <path d="M738.38,2063.65L738.38,2017.02" style="fill:none;fill-rule:nonzero;stroke:white;stroke-width:9.56px;"/>
            </g>
            <g transform="matrix(0.239349,0,0,0.239349,674.696,556.698)">
                <path d="M649.985,2063.65L738.38,2063.65" style="fill:none;fill-rule:nonzero;stroke:white;stroke-width:9.56px;"/>
            </g>
            <g transform="matrix(0.239349,0,0,0.239349,674.696,556.698)">
                <path d="M620.896,2063.65L647.959,2063.65" style="fill:none;fill-rule:nonzero;stroke:white;stroke-width:9.56px;"/>
            </g>
            <g transform="matrix(0.239349,0,0,0.239349,674.696,556.698)">
                <path d="M679.638,2122.32L679.638,2063.65L620.896,2063.65" style="fill:none;fill-rule:nonzero;stroke:white;stroke-width:9.56px;"/>
            </g>
            <g transform="matrix(0.239349,0,0,0.239349,674.696,556.698)">
                <path d="M620.896,2122.39L679.638,2122.39L679.638,2112.6" style="fill:none;fill-rule:nonzero;stroke:white;stroke-width:9.56px;"/>
            </g>
            <g transform="matrix(0.239349,0,0,0.239349,674.696,556.698)">
                <path d="M695.865,2214.88L738.38,2214.88L738.38,2122.39L620.896,2122.39" style="fill:none;fill-rule:nonzero;stroke:white;stroke-width:9.56px;"/>
            </g>
            <g transform="matrix(0.239349,0,0,0.239349,674.696,556.698)">
                <path d="M620.896,2156.14L620.896,2214.88L695.865,2214.88" style="fill:none;fill-rule:nonzero;stroke:white;stroke-width:9.56px;"/>
            </g>
            <g transform="matrix(0.239349,0,0,0.239349,674.696,556.698)">
                <path d="M738.38,2234.09L738.38,2214.88L620.896,2214.88L620.896,2156.14" style="fill:none;fill-rule:nonzero;stroke:white;stroke-width:9.56px;"/>
            </g>
            <g transform="matrix(0.239349,0,0,0.239349,674.696,556.698)">
                <path d="M738.38,2248.64L738.38,2234.09" style="fill:none;fill-rule:nonzero;stroke:white;stroke-width:9.56px;"/>
            </g>
            <g transform="matrix(0.239349,0,0,0.239349,674.696,556.698)">
                <path d="M738.38,2350.77L738.38,2307.38L620.896,2307.38L620.896,2248.64L679.638,2248.64L679.638,2288.8L722.502,2248.64L738.38,2248.64" style="fill:none;fill-rule:nonzero;stroke:white;stroke-width:9.56px;"/>
            </g>
            <g transform="matrix(0.239349,0,0,0.239349,674.696,556.698)">
                <path d="M728.59,2399.87L738.38,2399.87L738.38,2350.77" style="fill:none;fill-rule:nonzero;stroke:white;stroke-width:9.56px;"/>
            </g>
            <g transform="matrix(0.239349,0,0,0.239349,674.696,556.698)">
                <path d="M738.38,2444.29L738.38,2341.13L620.896,2341.13L620.896,2399.87L728.59,2399.87" style="fill:none;fill-rule:nonzero;stroke:white;stroke-width:9.56px;"/>
            </g>
            <g transform="matrix(0.239349,0,0,0.239349,674.696,556.698)">
                <path d="M679.638,2482.58L679.638,2492.37L738.38,2492.37L738.38,2444.29" style="fill:none;fill-rule:nonzero;stroke:white;stroke-width:9.56px;"/>
            </g>
            <g transform="matrix(0.239349,0,0,0.239349,674.696,556.698)">
                <path d="M740.14,2645.42L740.02,2533.46L739.901,2492.37L620.896,2492.37L620.896,2433.63L679.638,2433.63L679.638,2482.58" style="fill:none;fill-rule:nonzero;stroke:white;stroke-width:9.56px;"/>
            </g>
            <g transform="matrix(1,0,0,0.621053,0,275.623)">
                <path d="M912.171,727.807L912.171,740.713L981.157,740.713L981.157,727.338" style="fill:none;stroke:white;stroke-width:4.84px;stroke-miterlimit:1.5;"/>
            </g>
            <g transform="matrix(1,0,0,0.621053,74.6174,275.623)">
                <path d="M912.171,727.807L912.171,740.713L981.157,740.713L981.157,727.338" style="fill:none;stroke:white;stroke-width:4.84px;stroke-miterlimit:1.5;"/>
            </g>
        </g>
        <g transform="matrix(0.567614,0,0,0.567614,-358.304,813.197)">
            <g transform="matrix(0.239349,0,0,0.239349,674.696,556.698)">
                <path d="M773.095,2656.19C756.777,2653.32 747.711,2648.54 740.778,2641.55L547.235,2448C537.865,2438.62 532.592,2425.89 532.582,2412.63L532.582,848.859C532.582,848.854 532.582,848.849 532.582,848.843C532.582,774.761 593.543,713.801 667.625,713.801C667.63,713.801 667.635,713.801 667.64,713.801L975.222,713.801L975.222,750.233L880.316,750.233L880.316,959.4L837.76,959.4C833.323,943.529 818.753,932.473 802.273,932.473C795.247,932.473 788.364,934.483 782.442,938.265L752.979,911.903C766.462,893.653 773.74,871.55 773.74,848.859C773.74,790.654 725.845,742.759 667.64,742.759C609.436,742.759 561.54,790.654 561.54,848.859C561.54,848.859 561.54,848.859 561.54,848.859C561.54,907.064 609.436,954.959 667.64,954.959C694.372,954.959 720.14,944.857 739.749,926.689L769.213,953.051C766.722,958.113 765.426,963.679 765.426,969.32C765.426,989.534 782.059,1006.17 802.273,1006.17C818.753,1006.17 833.323,995.112 837.76,979.24L880.316,979.24L880.316,2270.3L837.76,2270.3C833.323,2254.43 818.753,2243.37 802.273,2243.37C782.06,2243.37 765.426,2260.01 765.426,2280.22C765.426,2300.43 782.06,2317.07 802.273,2317.07C818.753,2317.07 833.323,2306.01 837.76,2290.14L880.316,2290.14L880.316,2324.62L958.234,2324.4L958.234,1486.18L1064.06,1486.18L1064.06,1580.89L1099.34,1580.89L1099.34,1486.18L1205.16,1486.18L1205.16,1580.89L1262.65,1580.89L1293.06,1478.78L1297.93,1470.42C1215.53,1422.44 1164.68,1333.99 1164.68,1238.63C1164.68,1091.48 1285.77,970.398 1432.92,970.398C1463.87,970.398 1494.59,975.755 1523.71,986.231L1506.45,1023.25C1482.78,1015.17 1457.93,1011.05 1432.92,1011.05C1308.07,1011.05 1205.34,1113.78 1205.34,1238.63C1205.34,1318.22 1247.08,1392.23 1315.19,1433.4L1332.5,1396.3C1278.67,1362.02 1245.99,1302.45 1245.99,1238.63C1245.99,1136.09 1330.37,1051.7 1432.92,1051.7C1451.99,1051.7 1470.96,1054.62 1489.15,1060.36L1471.78,1097.61C1459.12,1094.12 1446.05,1092.35 1432.92,1092.35C1352.67,1092.35 1286.64,1158.39 1286.64,1238.63C1286.64,1286.68 1310.31,1331.77 1349.87,1359.05L1367.39,1321.48C1342.09,1301.46 1327.3,1270.9 1327.3,1238.63C1327.3,1180.69 1374.98,1133.01 1432.92,1133.01C1440.09,1133.01 1447.24,1133.74 1454.26,1135.19L1436.29,1173.81C1435.17,1173.75 1434.04,1173.73 1432.92,1173.73C1397.31,1173.73 1368.01,1203.03 1368.01,1238.63C1368.01,1255.05 1374.24,1270.87 1385.43,1282.88L1429.55,1303.45C1430.67,1303.51 1431.8,1303.54 1432.92,1303.54C1468.53,1303.54 1497.83,1274.24 1497.83,1238.63C1497.83,1222.22 1491.6,1206.4 1480.41,1194.39L1498.44,1155.79C1523.75,1175.81 1538.54,1206.36 1538.54,1238.63C1538.54,1296.58 1490.86,1344.26 1432.92,1344.26C1425.75,1344.26 1418.6,1343.53 1411.58,1342.08L1394.06,1379.66C1406.72,1383.14 1419.79,1384.91 1432.92,1384.91C1513.17,1384.91 1579.2,1318.88 1579.2,1238.63C1579.2,1190.58 1555.52,1145.5 1515.97,1118.22L1533.34,1080.97C1587.17,1115.25 1619.85,1174.82 1619.85,1238.63C1619.85,1341.18 1535.47,1425.57 1432.92,1425.57C1413.85,1425.57 1394.88,1422.65 1376.69,1416.91L1359.39,1454.01C1383.06,1462.09 1407.91,1466.22 1432.92,1466.22C1557.77,1466.22 1660.5,1363.48 1660.5,1238.63C1660.5,1159.05 1618.76,1085.03 1550.65,1043.87L1567.91,1006.84C1650.31,1054.83 1701.15,1143.28 1701.15,1238.63C1701.15,1385.78 1580.07,1506.87 1432.92,1506.87C1401.97,1506.87 1371.25,1501.51 1342.13,1491.04L1339.13,1498.77L1304.11,1611.05L1169.89,1611.05L1169.89,1527.24L1134.61,1527.24L1134.61,1611.05L1028.79,1611.05L1028.79,1527.24L993.509,1527.24L993.509,2316.43L1021.94,2316.43L1021.94,2372.53L880.823,2372.53L880.823,2634.14L1701.58,2634.14L1701.58,2372.53L1702.09,2372.53L1702.09,2290.14L1744.65,2290.14C1749.08,2306.01 1763.65,2317.07 1780.13,2317.07C1800.35,2317.07 1816.98,2300.43 1816.98,2280.22C1816.98,2260.01 1800.35,2243.37 1780.13,2243.37C1763.65,2243.37 1749.08,2254.43 1744.65,2270.3L1702.09,2270.3L1702.09,979.24L1744.65,979.24C1749.08,995.111 1763.65,1006.17 1780.13,1006.17C1800.35,1006.17 1816.98,989.534 1816.98,969.32C1816.98,949.107 1800.35,932.473 1780.13,932.473C1763.65,932.473 1749.08,943.529 1744.65,959.4L1702.09,959.4L1702.09,750.233L1607.18,750.233L1607.18,713.801L1721.22,713.801C1734.48,713.811 1747.21,719.083 1756.6,728.454C1783.32,755.176 1810.04,781.899 1836.77,808.622C1846.14,818.005 1851.41,830.735 1851.42,843.996L1851.42,2549.49C1851.42,2549.49 1851.42,2549.49 1851.42,2549.5C1851.42,2608.03 1803.25,2656.2 1744.72,2656.2C1744.71,2656.2 1744.71,2656.2 1744.7,2656.2L773.178,2656.2L773.095,2656.19Z" style="fill:none;fill-rule:nonzero;stroke:white;stroke-width:9.56px;"/>
            </g>
            <g transform="matrix(0.239349,0,0,0.239349,674.696,556.698)">
                <path d="M766.724,1036.91L766.724,1000.05L783.147,1009.95L783.155,1472.35L754.813,1551.99L754.834,2644.44" style="fill:none;fill-rule:nonzero;stroke:white;stroke-width:9.56px;"/>
            </g>
            <g transform="matrix(0.239349,0,0,0.239349,674.696,556.698)">
                <path d="M578.352,1069.48L545.78,1053.19L545.78,1036.91L766.724,1036.91" style="fill:none;fill-rule:nonzero;stroke:white;stroke-width:9.56px;"/>
            </g>
            <g transform="matrix(0.239349,0,0,0.239349,674.696,556.698)">
                <path d="M766.724,1085.77L766.724,1036.91L545.78,1036.91L545.78,1053.19L578.352,1069.48" style="fill:none;fill-rule:nonzero;stroke:white;stroke-width:9.56px;"/>
            </g>
            <g transform="matrix(0.239349,0,0,0.239349,674.696,556.698)">
                <path d="M766.724,1207.91L766.724,1085.77" style="fill:none;fill-rule:nonzero;stroke:white;stroke-width:9.56px;"/>
            </g>
            <g transform="matrix(0.239349,0,0,0.239349,674.696,556.698)">
                <path d="M766.724,1245.15L766.724,1216.06L545.78,1216.06L545.78,1118.34L638.549,1118.34L654.835,1211.83L654.835,1118.34L766.724,1118.34L766.724,1207.91" style="fill:none;fill-rule:nonzero;stroke:white;stroke-width:9.56px;"/>
            </g>
            <g transform="matrix(0.239349,0,0,0.239349,674.696,556.698)">
                <path d="M766.724,1248.63L766.724,1245.15" style="fill:none;fill-rule:nonzero;stroke:white;stroke-width:9.56px;"/>
            </g>
            <g transform="matrix(0.239349,0,0,0.239349,674.696,556.698)">
                <path d="M744.816,1378.92L766.724,1378.92L766.724,1346.34L545.78,1346.34L654.835,1297.49L545.78,1248.63L766.724,1248.63" style="fill:none;fill-rule:nonzero;stroke:white;stroke-width:9.56px;"/>
            </g>
            <g transform="matrix(0.239349,0,0,0.239349,674.696,556.698)">
                <path d="M554.851,1378.92L554.851,1476.63L654.835,1476.63L654.835,1378.92L744.816,1378.92" style="fill:none;fill-rule:nonzero;stroke:white;stroke-width:9.56px;"/>
            </g>
            <g transform="matrix(0.239349,0,0,0.239349,674.696,556.698)">
                <path d="M700.847,1620.76L738.38,1620.76L738.38,1550.93L766.724,1472.35L766.724,1378.92L654.835,1378.92L654.835,1476.63L554.851,1476.63L554.851,1378.92" style="fill:none;fill-rule:nonzero;stroke:white;stroke-width:9.56px;"/>
            </g>
            <g transform="matrix(0.239349,0,0,0.239349,674.696,556.698)">
                <path d="M620.896,1562.01L620.896,1620.76L700.847,1620.76" style="fill:none;fill-rule:nonzero;stroke:white;stroke-width:9.56px;"/>
            </g>
            <g transform="matrix(0.239349,0,0,0.239349,674.696,556.698)">
                <path d="M738.38,1650.06L738.38,1620.76L620.896,1620.76L620.896,1562.01" style="fill:none;fill-rule:nonzero;stroke:white;stroke-width:9.56px;"/>
            </g>
            <g transform="matrix(0.239349,0,0,0.239349,674.696,556.698)">
                <path d="M738.38,1654.51L738.38,1650.06" style="fill:none;fill-rule:nonzero;stroke:white;stroke-width:9.56px;"/>
            </g>
            <g transform="matrix(0.239349,0,0,0.239349,674.696,556.698)">
                <path d="M711.721,1683.88L738.38,1683.88L738.38,1656.66" style="fill:none;fill-rule:nonzero;stroke:white;stroke-width:9.56px;"/>
            </g>
            <g transform="matrix(0.239349,0,0,0.239349,674.696,556.698)">
                <path d="M620.896,1654.51L620.896,1683.88L711.721,1683.88" style="fill:none;fill-rule:nonzero;stroke:white;stroke-width:9.56px;"/>
            </g>
            <g transform="matrix(0.239349,0,0,0.239349,674.696,556.698)">
                <path d="M620.896,1693.71L620.896,1654.51" style="fill:none;fill-rule:nonzero;stroke:white;stroke-width:9.56px;"/>
            </g>
            <g transform="matrix(0.239349,0,0,0.239349,674.696,556.698)">
                <path d="M620.896,1713.25L620.896,1693.71" style="fill:none;fill-rule:nonzero;stroke:white;stroke-width:9.56px;"/>
            </g>
            <g transform="matrix(0.239349,0,0,0.239349,674.696,556.698)">
                <path d="M738.38,1713.25L738.38,1683.88L620.896,1683.88L620.896,1713.25" style="fill:none;fill-rule:nonzero;stroke:white;stroke-width:9.56px;"/>
            </g>
            <g transform="matrix(0.239349,0,0,0.239349,674.696,556.698)">
                <path d="M679.638,1781.27L679.638,1747L738.38,1747L738.38,1713.25" style="fill:none;fill-rule:nonzero;stroke:white;stroke-width:9.56px;"/>
            </g>
            <g transform="matrix(0.239349,0,0,0.239349,674.696,556.698)">
                <path d="M717.123,1805.74L738.38,1805.74L738.38,1747L679.638,1747L679.638,1781.27" style="fill:none;fill-rule:nonzero;stroke:white;stroke-width:9.56px;"/>
            </g>
            <g transform="matrix(0.239349,0,0,0.239349,674.696,556.698)">
                <path d="M620.896,1747L620.896,1805.74L717.123,1805.74" style="fill:none;fill-rule:nonzero;stroke:white;stroke-width:9.56px;"/>
            </g>
            <g transform="matrix(0.239349,0,0,0.239349,674.696,556.698)">
                <path d="M738.38,1819.92L738.38,1805.74L620.896,1805.74L620.896,1747" style="fill:none;fill-rule:nonzero;stroke:white;stroke-width:9.56px;"/>
            </g>
            <g transform="matrix(0.239349,0,0,0.239349,674.696,556.698)">
                <path d="M728.59,1898.24L738.38,1898.24L738.38,1819.92" style="fill:none;fill-rule:nonzero;stroke:white;stroke-width:9.56px;"/>
            </g>
            <g transform="matrix(0.239349,0,0,0.239349,674.696,556.698)">
                <path d="M688.779,1990.73L738.38,1990.73L738.38,1839.5L620.896,1839.5L620.896,1898.24L728.59,1898.24" style="fill:none;fill-rule:nonzero;stroke:white;stroke-width:9.56px;"/>
            </g>
            <g transform="matrix(0.239349,0,0,0.239349,674.696,556.698)">
                <path d="M620.896,1990.73L688.779,1990.73" style="fill:none;fill-rule:nonzero;stroke:white;stroke-width:9.56px;"/>
            </g>
            <g transform="matrix(0.239349,0,0,0.239349,674.696,556.698)">
                <path d="M738.38,2017.02L738.38,1990.73L620.896,1990.73" style="fill:none;fill-rule:nonzero;stroke:white;stroke-width:9.56px;"/>
            </g>
            <g transform="matrix(0.239349,0,0,0.239349,674.696,556.698)">
                <path d="M738.38,2063.65L738.38,2017.02" style="fill:none;fill-rule:nonzero;stroke:white;stroke-width:9.56px;"/>
            </g>
            <g transform="matrix(0.239349,0,0,0.239349,674.696,556.698)">
                <path d="M649.985,2063.65L738.38,2063.65" style="fill:none;fill-rule:nonzero;stroke:white;stroke-width:9.56px;"/>
            </g>
            <g transform="matrix(0.239349,0,0,0.239349,674.696,556.698)">
                <path d="M620.896,2063.65L647.959,2063.65" style="fill:none;fill-rule:nonzero;stroke:white;stroke-width:9.56px;"/>
            </g>
            <g transform="matrix(0.239349,0,0,0.239349,674.696,556.698)">
                <path d="M679.638,2122.32L679.638,2063.65L620.896,2063.65" style="fill:none;fill-rule:nonzero;stroke:white;stroke-width:9.56px;"/>
            </g>
            <g transform="matrix(0.239349,0,0,0.239349,674.696,556.698)">
                <path d="M620.896,2122.39L679.638,2122.39L679.638,2112.6" style="fill:none;fill-rule:nonzero;stroke:white;stroke-width:9.56px;"/>
            </g>
            <g transform="matrix(0.239349,0,0,0.239349,674.696,556.698)">
                <path d="M695.865,2214.88L738.38,2214.88L738.38,2122.39L620.896,2122.39" style="fill:none;fill-rule:nonzero;stroke:white;stroke-width:9.56px;"/>
            </g>
            <g transform="matrix(0.239349,0,0,0.239349,674.696,556.698)">
                <path d="M620.896,2156.14L620.896,2214.88L695.865,2214.88" style="fill:none;fill-rule:nonzero;stroke:white;stroke-width:9.56px;"/>
            </g>
            <g transform="matrix(0.239349,0,0,0.239349,674.696,556.698)">
                <path d="M738.38,2234.09L738.38,2214.88L620.896,2214.88L620.896,2156.14" style="fill:none;fill-rule:nonzero;stroke:white;stroke-width:9.56px;"/>
            </g>
            <g transform="matrix(0.239349,0,0,0.239349,674.696,556.698)">
                <path d="M738.38,2248.64L738.38,2234.09" style="fill:none;fill-rule:nonzero;stroke:white;stroke-width:9.56px;"/>
            </g>
            <g transform="matrix(0.239349,0,0,0.239349,674.696,556.698)">
                <path d="M738.38,2350.77L738.38,2307.38L620.896,2307.38L620.896,2248.64L679.638,2248.64L679.638,2288.8L722.502,2248.64L738.38,2248.64" style="fill:none;fill-rule:nonzero;stroke:white;stroke-width:9.56px;"/>
            </g>
            <g transform="matrix(0.239349,0,0,0.239349,674.696,556.698)">
                <path d="M728.59,2399.87L738.38,2399.87L738.38,2350.77" style="fill:none;fill-rule:nonzero;stroke:white;stroke-width:9.56px;"/>
            </g>
            <g transform="matrix(0.239349,0,0,0.239349,674.696,556.698)">
                <path d="M738.38,2444.29L738.38,2341.13L620.896,2341.13L620.896,2399.87L728.59,2399.87" style="fill:none;fill-rule:nonzero;stroke:white;stroke-width:9.56px;"/>
            </g>
            <g transform="matrix(0.239349,0,0,0.239349,674.696,556.698)">
                <path d="M679.638,2482.58L679.638,2492.37L738.38,2492.37L738.38,2444.29" style="fill:none;fill-rule:nonzero;stroke:white;stroke-width:9.56px;"/>
            </g>
            <g transform="matrix(0.239349,0,0,0.239349,674.696,556.698)">
                <path d="M740.14,2645.42L740.02,2533.46L739.901,2492.37L620.896,2492.37L620.896,2433.63L679.638,2433.63L679.638,2482.58" style="fill:none;fill-rule:nonzero;stroke:white;stroke-width:9.56px;"/>
            </g>
            <g transform="matrix(1,0,0,0.621053,0,275.623)">
                <path d="M912.171,727.807L912.171,740.713L981.157,740.713L981.157,727.338" style="fill:none;stroke:white;stroke-width:4.84px;stroke-miterlimit:1.5;"/>
            </g>
            <g transform="matrix(1,0,0,0.621053,74.6174,275.623)">
                <path d="M912.171,727.807L912.171,740.713L981.157,740.713L981.157,727.338" style="fill:none;stroke:white;stroke-width:4.84px;stroke-miterlimit:1.5;"/>
            </g>
        </g>
    </g>
    <g id="Layer21" serif:id="Layer2">
    </g>
    <g id="Layer3">
        <g transform="matrix(1.85634,0,0,2.6875,-878.853,-1225.38)">
            <g transform="matrix(0.538695,-0,-0,0.372094,473.434,455.957)">
                <path d="M1013.83,701.227L1026.29,726.154L1038.76,701.227C1032.53,707.459 1020.06,707.459 1013.83,701.227Z" style="fill:rgb(103,139,154);"/>
                <path d="M1026.29,706.213L1026.29,533.707L1321.23,533.707" style="fill:none;stroke:rgb(103,139,154);stroke-width:2.29px;stroke-miterlimit:1.5;"/>
            </g>
        </g>
        <g transform="matrix(-1.80656,0,0,1,2800.73,1.13687e-13)">
            <g transform="matrix(-0.553537,0,0,1,1550.31,-1.13687e-13)">
                <path d="M934.201,701.227L946.664,726.154L959.127,701.227C952.896,707.459 940.433,707.459 934.201,701.227Z" style="fill:rgb(103,139,154);"/>
                <path d="M946.664,706.213L946.664,654.545L659.635,654.545" style="fill:none;stroke:rgb(103,139,154);stroke-width:2.29px;stroke-miterlimit:1.5;"/>
            </g>
        </g>
        <g transform="matrix(1.1609,0,0,1,193.136,-12.1734)">
            <path d="M691.979,944.407L934.731,944.407" style="fill:none;stroke:rgb(103,139,154);stroke-width:2.11px;stroke-miterlimit:1.5;"/>
        </g>
    </g>
    <g id="Layer4">
        <g transform="matrix(1,0,0,1,67.3881,177.335)">
            <text x="152.533px" y="476.075px" style="font-family:'ArialMT', 'Arial', sans-serif;font-size:48px;fill:rgb(103,139,154);">USB Power Input</text>
            <text x="247.572px" y="525.253px" style="font-family:'ArialMT', 'Arial', sans-serif;font-size:36px;fill:rgb(103,139,154);">(optional)**</text>
        </g>
        <g transform="matrix(1,0,0,1,1340.08,-107.084)">
            <text x="29.63px" y="487.536px" style="font-family:'ArialMT', 'Arial', sans-serif;font-size:64px;fill:rgb(103,139,154);">Synthesizer<tspan x="360.474px " y="487.536px ">,</tspan></text>
            <text x="29.63px" y="565.63px" style="font-family:'ArialMT', 'Arial', sans-serif;font-size:64px;fill:rgb(103,139,154);">Sampler<tspan x="264.411px " y="565.63px ">,</tspan></text>
            <text x="29.63px" y="643.724px" style="font-family:'ArialMT', 'Arial', sans-serif;font-size:64px;fill:rgb(103,139,154);">Phone,</text>
            <text x="29.63px" y="721.817px" style="font-family:'ArialMT', 'Arial', sans-serif;font-size:64px;fill:rgb(103,139,154);">DA<tspan x="116.161px 173.036px " y="721.817px 721.817px ">W,</tspan></text>
            <text x="29.63px" y="799.911px" style="font-family:'ArialMT', 'Arial', sans-serif;font-size:64px;fill:rgb(103,139,154);">etc.</text>
        </g>
        <g transform="matrix(1,0,0,1,1295.97,406.303)">
            <text x="61.486px" y="553.697px" style="font-family:'ArialMT', 'Arial', sans-serif;font-size:96px;fill:rgb(103,139,154);">Button</text>
        </g>
        <g transform="matrix(1,0,0,1,117.175,150.776)">
            <text x="1003.25px" y="361.527px" style="font-family:'ArialMT', 'Arial', sans-serif;font-size:24px;fill:rgb(171,160,160);">USB MIDI</text>
            <text x="973.888px" y="421.527px" style="font-family:'ArialMT', 'Arial', sans-serif;font-size:24px;fill:rgb(171,160,160);">(device or host)</text>
        </g>
    </g>
</svg>
